<?xml version="1.0" encoding="utf-8"?>
<!-- Generator: Adobe Illustrator 19.0.0, SVG Export Plug-In . SVG Version: 6.00 Build 0)  -->
<svg version="1.1" xmlns="http://www.w3.org/2000/svg" xmlns:xlink="http://www.w3.org/1999/xlink" x="0px" y="0px"
	 viewBox="0 0 32.1 51.4" style="enable-background:new 0 0 32.1 51.4; fill: #FFF;" xml:space="preserve">
<g id="Layer_1">
</g>
<g id="Layer_2">
</g>
<g id="Layer_3">
	<g>
		<path d="M395.5,24.5h7.9c0.7,0,1.3-0.6,1.3-1.3s-0.6-1.3-1.3-1.3h-7.9c-0.7,0-1.3,0.6-1.3,1.3S394.8,24.5,395.5,24.5z"/>
		<path d="M392,22h-0.4c-0.7,0-1.3,0.6-1.3,1.3s0.6,1.3,1.3,1.3h0.4c0.7,0,1.3-0.6,1.3-1.3S392.7,22,392,22z"/>
		<path d="M402.2,18.4c0-0.7-0.6-1.3-1.3-1.3h-16.4c-0.7,0-1.3,0.6-1.3,1.3s0.6,1.3,1.3,1.3H401C401.7,19.7,402.2,19.1,402.2,18.4z"
			/>
		<path d="M434.6,15.8c3.6,0,6.6-2.9,6.6-6.6s-2.9-6.6-6.6-6.6s-6.6,2.9-6.6,6.6S431,15.8,434.6,15.8z M434.6,5.2
			c2.2,0,4.1,1.8,4.1,4.1s-1.8,4.1-4.1,4.1s-4.1-1.8-4.1-4.1S432.4,5.2,434.6,5.2z"/>
		<path d="M445.9,20.7c-0.5-0.5-1.3-0.5-1.8,0c-0.1,0.1-6.2,6.1-8.1,7.9c-0.8,0.8-1.4,0.6-1.7,0.3l-4.5-4.5c-0.5-0.5-1.3-0.5-1.8,0
			l-5.4,5.3c-0.3,0.3-0.4,0.8-0.3,1.2c0.1,0.4,0.4,0.8,0.8,0.9l6.1,2c0,0,0.1,0,0.1,0c0.2,0.1,0.8,0.3,0.9,0.6
			c0.1,0.3-0.2,1.1-1.4,2.3l-9.5,9.5c-0.5,0.5-0.5,1.3,0,1.8c0.2,0.2,0.6,0.4,0.9,0.4s0.6-0.1,0.9-0.4l9.5-9.5
			c1.7-1.7,2.4-3.3,2-4.7c-0.5-1.7-2.3-2.3-2.7-2.4l-4.1-1.3l3.1-3l3.7,3.7c0.1,0.1,1,1,2.5,1c0.7,0,1.7-0.2,2.8-1.3
			c1.9-1.9,8-7.8,8.1-7.9C446.4,22,446.4,21.2,445.9,20.7z"/>
		<path d="M439.8,16.7l-4.2,4.2l-3.5-3.4c-0.5-0.5-1.3-0.5-1.8,0s-0.5,1.3,0,1.8l4.3,4.3c0.2,0.2,0.6,0.4,0.9,0.4
			c0.3,0,0.7-0.1,0.9-0.4l5.1-5.1c0.5-0.5,0.5-1.3,0-1.8C441.1,16.2,440.3,16.2,439.8,16.7z"/>
		<path d="M406.1,17.3c0.3,0,0.6-0.1,0.9-0.4l8.1-8c0,0,0.1-0.1,0.1-0.1c0.3-0.3,1.2-1.3,2.2-1.3c0.5,0,0.9,0.2,1.4,0.6
			c2.6,2.6,6.1,5.9,6.1,5.9c0.5,0.5,1.3,0.5,1.8-0.1c0.5-0.5,0.5-1.3,0-1.8c0,0-3.5-3.3-6-5.9c-1.2-1.2-2.4-1.4-3.3-1.4
			c-2.1,0.1-3.6,1.8-3.9,2.2l-8.1,7.9c-0.5,0.5-0.5,1.3,0,1.8C405.5,17.2,405.8,17.3,406.1,17.3z"/>
		<path d="M422.6,18.1c0-0.3-0.1-0.7-0.4-0.9l-4.3-4.3c-0.2-0.2-0.6-0.4-0.9-0.4c0,0,0,0,0,0c-0.3,0-0.6,0.1-0.9,0.4l-6.4,6.4
			c-0.5,0.5-0.5,1.3,0,1.8s1.3,0.5,1.8,0l5.5-5.5l2.5,2.6l-24.9,24.3c-0.5,0.5-0.5,1.3,0,1.8c0.2,0.3,0.6,0.4,0.9,0.4
			c0.3,0,0.6-0.1,0.9-0.4L422.2,19C422.5,18.8,422.6,18.4,422.6,18.1z"/>
	</g>
	<g>
		<path d="M415.2,105c-8.5,0-15.5,6.9-15.5,15.5s6.9,15.5,15.5,15.5s15.5-6.9,15.5-15.5S423.8,105,415.2,105z M415.2,133.5
			c-7.2,0-13-5.8-13-13s5.8-13,13-13s13,5.8,13,13S422.4,133.5,415.2,133.5z"/>
		<path d="M420.2,147.4c-0.7-0.1-1.3,0.4-1.4,1.1c0,0.1-0.5,3.5-3.6,3.6c-3,0-3.5-3.2-3.6-3.6c-0.1-0.7-0.7-1.2-1.4-1.1
			c-0.7,0.1-1.2,0.7-1.1,1.4c0.3,2,1.9,5.6,6,5.7c0,0,0,0,0.1,0c0,0,0,0,0.1,0c0,0,0,0,0.1,0c4.1-0.1,5.7-3.8,6-5.7
			C421.4,148.1,420.9,147.5,420.2,147.4z"/>
		<path d="M422.4,138.2h-14.3c-0.7,0-1.3,0.6-1.3,1.3s0.6,1.3,1.3,1.3h14.3c0.7,0,1.3-0.6,1.3-1.3S423.1,138.2,422.4,138.2z"/>
		<path d="M421,142.5h-11.5c-0.7,0-1.3,0.6-1.3,1.3s0.6,1.3,1.3,1.3H421c0.7,0,1.3-0.6,1.3-1.3S421.7,142.5,421,142.5z"/>
		<path d="M424.2,118.6l-1.1-0.4c-0.1-0.4-0.2-0.7-0.4-1.1l0.6-1.2c0.2-0.4,0.1-0.9-0.2-1.2l-1.8-1.8c-0.3-0.3-0.8-0.4-1.1-0.2
			l-1.1,0.5c-0.3-0.2-0.7-0.4-1-0.5l-0.4-1.2c-0.1-0.4-0.5-0.7-1-0.7h-2.5c-0.4,0-0.8,0.3-0.9,0.7l-0.4,1.1
			c-0.4,0.1-0.7,0.2-1.1,0.4l-1.2-0.7c-0.4-0.2-0.9-0.1-1.2,0.2l-1.8,1.8c-0.3,0.3-0.4,0.8-0.2,1.1l0.5,1.1
			c-0.2,0.3-0.4,0.7-0.5,1.1l-1.3,0.4c-0.4,0.1-0.7,0.5-0.7,1v2.5c0,0.4,0.3,0.8,0.7,0.9l1.1,0.4c0.1,0.3,0.2,0.7,0.4,1l-0.7,1.2
			c-0.2,0.4-0.1,0.9,0.2,1.2l1.8,1.8c0.3,0.3,0.8,0.4,1.1,0.2l1.1-0.5c0.3,0.2,0.7,0.3,1,0.5l0.4,1.3c0.1,0.4,0.5,0.7,1,0.7h2.5
			c0.4,0,0.8-0.3,0.9-0.7l0.4-1.1c0.4-0.1,0.8-0.3,1.2-0.4l1.1,0.6c0.4,0.2,0.9,0.1,1.2-0.2l1.8-1.8c0.3-0.3,0.4-0.7,0.2-1.1
			l-0.5-1.1c0.2-0.3,0.4-0.6,0.5-1l1.3-0.4c0.4-0.1,0.7-0.5,0.7-1v-2.5C424.9,119.2,424.6,118.8,424.2,118.6z M422.9,121.3l-0.9,0.3
			c-0.4,0.1-0.7,0.4-0.8,0.7c-0.1,0.5-0.4,0.9-0.7,1.5c-0.2,0.3-0.2,0.6-0.1,1l0.4,0.9l-0.7,0.7l-0.9-0.5c-0.3-0.2-0.7-0.2-1,0
			c-0.5,0.3-1.1,0.5-1.7,0.6c-0.3,0.1-0.6,0.3-0.7,0.6l-0.3,1h-1.1l-0.3-0.9c-0.1-0.4-0.3-0.7-0.7-0.8c-0.5-0.2-1.1-0.4-1.5-0.7
			c-0.3-0.2-0.7-0.2-1-0.1l-0.9,0.5l-0.7-0.7l0.5-0.9c0.2-0.3,0.3-0.7,0.1-1.1c-0.3-0.5-0.5-1-0.6-1.6c-0.1-0.3-0.3-0.6-0.6-0.7
			l-1-0.3v-1l1.1-0.3c0.3-0.1,0.6-0.3,0.7-0.7c0.2-0.6,0.4-1.1,0.7-1.6c0.2-0.3,0.2-0.8,0-1.1l-0.4-0.9l0.7-0.7l1,0.6
			c0.3,0.2,0.6,0.2,0.9,0c0.5-0.3,1-0.5,1.6-0.6c0.3-0.1,0.6-0.3,0.7-0.7l0.3-0.9h1l0.3,1c0,0.1,0,0.1,0.1,0.2
			c0.2,0.3,0.4,0.4,0.7,0.5c0.5,0.1,0.9,0.4,1.4,0.7c0.3,0.2,0.7,0.2,1,0.1l0.9-0.4l0.7,0.7l-0.5,0.9c-0.2,0.3-0.2,0.7-0.1,1
			c0.3,0.5,0.5,1,0.6,1.6c0.1,0.3,0.3,0.6,0.6,0.7l1,0.3V121.3z"/>
		<path d="M415.2,116c-2.5,0-4.5,2-4.5,4.5s2,4.5,4.5,4.5c2.5,0,4.5-2,4.5-4.5S417.7,116,415.2,116z M415.2,123
			c-1.4,0-2.5-1.1-2.5-2.5s1.1-2.5,2.5-2.5c1.4,0,2.5,1.1,2.5,2.5S416.6,123,415.2,123z"/>
		<path d="M415.2,102.8c0.7,0,1.3-0.6,1.3-1.3v-7c0-0.7-0.6-1.3-1.3-1.3s-1.3,0.6-1.3,1.3v7C414,102.3,414.6,102.8,415.2,102.8z"/>
		<path d="M440.7,118.5h-7c-0.7,0-1.3,0.6-1.3,1.3s0.6,1.3,1.3,1.3h7c0.7,0,1.3-0.6,1.3-1.3S441.4,118.5,440.7,118.5z"/>
		<path d="M432.3,129.4c-0.5-0.5-1.3-0.5-1.8,0s-0.5,1.3,0,1.8l5,4.9c0.2,0.2,0.6,0.4,0.9,0.4s0.6-0.1,0.9-0.4
			c0.5-0.5,0.5-1.3,0-1.8L432.3,129.4z"/>
		<path d="M428.8,107.4c0.3,0,0.6-0.1,0.9-0.4l4.9-4.9c0.5-0.5,0.5-1.3,0-1.8s-1.3-0.5-1.8,0l-4.9,4.9c-0.5,0.5-0.5,1.3,0,1.8
			C428.2,107.3,428.5,107.4,428.8,107.4z"/>
		<path d="M397.1,119.8c0-0.7-0.6-1.3-1.3-1.3h-7c-0.7,0-1.3,0.6-1.3,1.3s0.6,1.3,1.3,1.3h7C396.6,121.1,397.1,120.5,397.1,119.8z"
			/>
		<path d="M397.8,109.2c0.2,0.2,0.6,0.4,0.9,0.4s0.6-0.1,0.9-0.4c0.5-0.5,0.5-1.3,0-1.8l-4.9-5c-0.5-0.5-1.3-0.5-1.8,0
			s-0.5,1.3,0,1.8L397.8,109.2z"/>
		<path d="M399.5,131.5l-5,5c-0.5,0.5-0.5,1.3,0,1.8c0.2,0.2,0.6,0.4,0.9,0.4s0.6-0.1,0.9-0.4l5-5c0.5-0.5,0.5-1.3,0-1.8
			S400,131,399.5,131.5z"/>
	</g>
	<g>
		<path d="M16.1,21c5.1,0,9.3-4.1,9.3-9.3s-4.1-9.3-9.3-9.3s-9.3,4.1-9.3,9.3S11,21,16.1,21z M16.1,5c3.7,0,6.8,3,6.8,6.8
			s-3,6.8-6.8,6.8s-6.8-3-6.8-6.8S12.3,5,16.1,5z"/>
		<path d="M2.9,34.9c0.8,1.5,5.3,6.1,12.6,12.7l0.8,0.8l0.8-0.8c7.2-6.5,11.2-10.8,12-12.7l0,0c0.6-1.2,1-2.6,1-3.9
			c0-4.6-3.7-8.4-8.4-8.4c-2.2,0-4.2,0.9-5.8,2.4c-1.5-1.6-3.6-2.4-5.8-2.4c-4.6,0-8.4,3.7-8.4,8.4C1.9,32.4,2.3,33.7,2.9,34.9
			L2.9,34.9z M10.3,25.2c1.9,0,3.7,0.9,4.8,2.6l1,1.5l1-1.5c1.1-1.7,2.8-2.6,4.7-2.6c3.2,0,5.9,2.6,5.9,5.9c0,1-0.2,1.9-0.7,2.7
			L26.9,34l0,0.1c-0.3,0.5-1.9,3-10.5,10.9C7,36.5,5.4,34.2,5.2,33.9l-0.1-0.1C4.7,32.9,4.4,32,4.4,31C4.4,27.8,7.1,25.2,10.3,25.2z
			"/>
		<path d="M23.9,130.5c3.2-2.7,5.2-6.7,5.2-11.2c0-8-6.5-14.6-14.6-14.6c-8,0-14.6,6.5-14.6,14.6s6.5,14.6,14.6,14.6
			c2.5,0,4.9-0.6,7-1.8l8,10.4c0.3,0.4,0.7,0.6,1.1,0.6c0.3,0,0.6-0.1,0.9-0.3c0.6-0.5,0.7-1.4,0.3-2L23.9,130.5z M2.9,119.3
			c0-6.4,5.2-11.7,11.7-11.7c6.4,0,11.7,5.2,11.7,11.7S21,131,14.6,131C8.1,131,2.9,125.8,2.9,119.3z"/>
		<path d="M23.5,123.4c0.7-1.3,1.1-2.9,1.1-4.4c0-5.2-4.3-9.5-9.5-9.5c-0.6,0-1.2,0.1-1.8,0.2c-0.8,0.1-1.3,0.9-1.1,1.7
			c0.1,0.8,0.9,1.3,1.7,1.1c0.4-0.1,0.8-0.1,1.2-0.1c3.7,0,6.7,3,6.7,6.7c0,1.1-0.3,2.1-0.7,3.1c-0.4,0.7-0.1,1.6,0.6,1.9
			c0.2,0.1,0.4,0.2,0.7,0.2C22.7,124.2,23.2,123.9,23.5,123.4z"/>
		<path d="M299.6,98.4h-4.8c-0.7,0-1.3,0.6-1.3,1.3v1.8l-2.2-2h-14.6l-0.4,0.5c-1.7,2.2-4.9,5.4-6.6,5.4h-1.3v6.2h9.3v27.4h0.1
			l6.2,10.3l6.2-10.3h0.1v-27.4h1.7l1.5-1.2v1.8c0,0.7,0.6,1.3,1.3,1.3h4.8c0.7,0,1.3-0.6,1.3-1.3V99.7
			C300.9,99,300.3,98.4,299.6,98.4z M285.6,142h-3l-1.8-2.9h6.6L285.6,142z M280.3,136.6v-24.9h2.5v24.9H280.3z M287.9,136.6h-2.5
			v-24.9h2.5V136.6z M293.5,107.3l-2.4,1.9h-0.8h-12.6H271v-1.4c2.9-0.8,5.8-4.2,7-5.7h12.4l3.1,2.8V107.3z M298.4,111H296v-2.5
			v-4.7v-2.9h2.3V111z"/>
		<path d="M134,44.9h19.6c2,0,3.7-1.6,3.7-3.7V38h3.9c0.7,0,1.3-0.6,1.3-1.3s-0.6-1.3-1.3-1.3h-3.9v-6.9h3.9c0.7,0,1.3-0.6,1.3-1.3
			s-0.6-1.3-1.3-1.3h-3.9v-6.9h3.9c0.7,0,1.3-0.6,1.3-1.3s-0.6-1.3-1.3-1.3h-3.9V9.7c0-2.1-1.7-3.7-3.7-3.7h-15.2l-8,8.4v26.9
			C130.4,43.3,132,44.9,134,44.9z M132.9,15.4l5-5.2v4h-3.4v2.5h5.9V8.5h13.2c0.7,0,1.2,0.6,1.2,1.2v7.1h-7.6
			c-0.7,0-1.3,0.6-1.3,1.3s0.6,1.3,1.3,1.3h7.6v6.9h-7.6c-0.7,0-1.3,0.6-1.3,1.3s0.6,1.3,1.3,1.3h7.6v6.9h-7.6
			c-0.7,0-1.3,0.6-1.3,1.3s0.6,1.3,1.3,1.3h7.6v3.2c0,0.6-0.5,1.2-1.2,1.2H134c-0.6,0-1.2-0.5-1.2-1.2V15.4z"/>
		<path d="M138.9,20.6c0.2,0.2,0.6,0.4,0.9,0.4s0.6-0.1,0.9-0.4l4.6-4.6c0.5-0.5,0.5-1.3,0-1.8s-1.3-0.5-1.8,0l-3.7,3.7l-0.8-0.8
			c-0.5-0.5-1.3-0.5-1.8,0s-0.5,1.3,0,1.8L138.9,20.6z"/>
		<path d="M144.4,23.3c-0.5-0.5-1.3-0.5-1.8,0l-1.4,1.4l-1.4-1.4c-0.5-0.5-1.3-0.5-1.8,0s-0.5,1.3,0,1.8l1.4,1.4l-1.4,1.4
			c-0.5,0.5-0.5,1.3,0,1.8c0.2,0.2,0.6,0.4,0.9,0.4s0.6-0.1,0.9-0.4l1.4-1.4l1.4,1.4c0.2,0.2,0.6,0.4,0.9,0.4s0.6-0.1,0.9-0.4
			c0.5-0.5,0.5-1.3,0-1.8l-1.4-1.4l1.4-1.4C144.9,24.6,144.9,23.8,144.4,23.3z"/>
		<path d="M144.4,33.2c-0.5-0.5-1.3-0.5-1.8,0l-1.4,1.4l-1.4-1.4c-0.5-0.5-1.3-0.5-1.8,0s-0.5,1.3,0,1.8l1.4,1.4l-1.4,1.4
			c-0.5,0.5-0.5,1.3,0,1.8c0.2,0.2,0.6,0.4,0.9,0.4s0.6-0.1,0.9-0.4l1.4-1.4l1.4,1.4c0.2,0.2,0.6,0.4,0.9,0.4s0.6-0.1,0.9-0.4
			c0.5-0.5,0.5-1.3,0-1.8l-1.4-1.4l1.4-1.4C144.9,34.5,144.9,33.7,144.4,33.2z"/>
		<path d="M163.5,133.9l-2.1-20.3c3-0.8,5.3-3.6,5.3-6.9c0-3.9-3.2-7.1-7.1-7.1s-7.1,3.2-7.1,7.1c0,0.8,0.1,1.6,0.4,2.3l-17.7,10.5
			c-1.3-1.5-3.2-2.4-5.4-2.4c-3.9,0-7.1,3.2-7.1,7.1s3.2,7.1,7.1,7.1c2.2,0,4.2-1,5.6-2.7l20.9,10.1c-0.2,0.7-0.3,1.4-0.3,2.2
			c0,3.9,3.2,7.1,7.1,7.1s7.1-3.2,7.1-7.1C170.1,137.3,167.2,134.2,163.5,133.9z M159.6,102.1c2.6,0,4.6,2.1,4.6,4.6
			s-2.1,4.6-4.6,4.6s-4.6-2.1-4.6-4.6S157,102.1,159.6,102.1z M129.8,128.9c-2.6,0-4.6-2.1-4.6-4.6s2.1-4.6,4.6-4.6s4.6,2.1,4.6,4.6
			S132.3,128.9,129.8,128.9z M136.5,126.5c0.2-0.7,0.4-1.5,0.4-2.3c0-0.9-0.2-1.8-0.5-2.6l17.6-10.4c1.2,1.5,3,2.5,5,2.6l2.1,20.3
			c-1.5,0.4-2.8,1.3-3.7,2.5L136.5,126.5z M163,145.7c-2.6,0-4.6-2.1-4.6-4.6s2.1-4.6,4.6-4.6s4.6,2.1,4.6,4.6
			S165.5,145.7,163,145.7z"/>
		<path d="M288,13.8c0.2-0.2,0.6-0.2,0.7-0.2c0.1,0,0.1,0,0.2,0h2.8c0.4,1.9,2.1,3.3,4.1,3.3h17.9c2.3,0,4.2-1.9,4.2-4.2v-0.5
			c0-2.3-1.9-4.2-4.2-4.2h-17.9c-1.9,0-3.5,1.3-4,3.1H289c-0.4,0-1.6-0.1-2.6,0.8c-0.5,0.5-1.1,1.3-1.1,2.9V24h-3.7v-2
			c0-3.1-2.5-5.5-5.5-5.5h-19c-3.1,0-5.5,2.5-5.5,5.5v6.8c0,3.1,2.5,5.5,5.5,5.5h19c3.1,0,5.5-2.5,5.5-5.5v-2.3h3.7v9.9
			c0,0.3,0,1.5,0.9,2.5c0.5,0.5,1.3,1.1,2.8,1.1h3c0.6,1.6,2.1,2.8,3.9,2.8h17.9c2.3,0,4.2-1.9,4.2-4.2v-0.5c0-2.3-1.9-4.2-4.2-4.2
			h-17.9c-2.1,0-3.8,1.5-4.1,3.5h-2.8c-0.3,0-0.7,0-1-0.3c-0.2-0.2-0.2-0.7-0.2-0.7c0,0,0-0.1,0-0.1v-9.9h4c0.4,1.9,2.1,3.3,4.1,3.3
			h17.9c2.3,0,4.2-1.9,4.2-4.2v-0.5c0-2.3-1.9-4.2-4.2-4.2h-17.9c-1.9,0-3.5,1.3-4,3h-4.1v-9.2C287.7,14.5,287.8,14,288,13.8z
			 M294.1,12.2c0-0.9,0.8-1.7,1.7-1.7h17.9c0.9,0,1.7,0.7,1.7,1.7v0.5c0,0.9-0.8,1.7-1.7,1.7h-17.9c-0.9,0-1.7-0.8-1.7-1.7V12.2z
			 M279.1,28.8c0,1.7-1.4,3-3,3h-19c-1.7,0-3-1.4-3-3V22c0-1.7,1.4-3,3-3h19c1.7,0,3,1.4,3,3V28.8z M294.1,38.2
			c0-0.9,0.8-1.7,1.7-1.7h17.9c0.9,0,1.7,0.7,1.7,1.7v0.5c0,0.9-0.8,1.7-1.7,1.7h-17.9c-0.9,0-1.7-0.8-1.7-1.7V38.2z M294.1,25.2
			c0-0.9,0.8-1.7,1.7-1.7h17.9c0.9,0,1.7,0.8,1.7,1.7v0.5c0,0.9-0.8,1.7-1.7,1.7h-17.9c-0.9,0-1.7-0.8-1.7-1.7V25.2z"/>
	</g>
</g>
</svg>
