<?xml version="1.0" encoding="utf-8"?>
<!-- Generator: Adobe Illustrator 19.0.0, SVG Export Plug-In . SVG Version: 6.00 Build 0)  -->
<svg version="1.1" xmlns="http://www.w3.org/2000/svg" xmlns:xlink="http://www.w3.org/1999/xlink" x="0px" y="0px"
	 viewBox="0 0 56.7 56.7" style="enable-background:new 0 0 56.7 56.7;fill: #FFF;" xml:space="preserve">
<g id="Layer_1">
</g>
<g id="Layer_2">
</g>
<g id="Layer_3">
	<g>
		<path d="M139-71.1h7.9c0.7,0,1.3-0.6,1.3-1.3s-0.6-1.3-1.3-1.3H139c-0.7,0-1.3,0.6-1.3,1.3S138.3-71.1,139-71.1z"/>
		<path d="M135.5-73.6h-0.4c-0.7,0-1.3,0.6-1.3,1.3s0.6,1.3,1.3,1.3h0.4c0.7,0,1.3-0.6,1.3-1.3S136.2-73.6,135.5-73.6z"/>
		<path d="M145.8-77.1c0-0.7-0.6-1.3-1.3-1.3h-16.4c-0.7,0-1.2,0.6-1.2,1.3s0.6,1.3,1.2,1.3h16.4C145.2-75.9,145.8-76.4,145.8-77.1z
			"/>
		<path d="M178.2-79.7c3.6,0,6.6-2.9,6.6-6.6s-2.9-6.6-6.6-6.6s-6.6,2.9-6.6,6.6S174.5-79.7,178.2-79.7z M178.2-90.4
			c2.2,0,4.1,1.8,4.1,4.1s-1.8,4.1-4.1,4.1s-4.1-1.8-4.1-4.1S175.9-90.4,178.2-90.4z"/>
		<path d="M189.4-74.9c-0.5-0.5-1.3-0.5-1.8,0c-0.1,0.1-6.2,6.1-8.1,7.9c-0.8,0.8-1.4,0.6-1.7,0.3l-4.5-4.5c-0.5-0.5-1.3-0.5-1.8,0
			l-5.4,5.3c-0.3,0.3-0.4,0.8-0.3,1.2c0.1,0.4,0.4,0.8,0.8,0.9l6.1,2c0,0,0.1,0,0.1,0c0.2,0.1,0.8,0.3,0.9,0.6
			c0.1,0.3-0.2,1.1-1.4,2.3l-9.5,9.5c-0.5,0.5-0.5,1.3,0,1.8c0.2,0.2,0.6,0.4,0.9,0.4s0.6-0.1,0.9-0.4l9.5-9.5
			c1.7-1.7,2.4-3.3,2-4.7c-0.5-1.7-2.3-2.3-2.7-2.4l-4.1-1.3l3.1-3l3.7,3.7c0.1,0.1,1,1,2.5,1c0.7,0,1.7-0.2,2.8-1.3
			c1.9-1.9,8-7.8,8.1-7.9C189.9-73.6,189.9-74.4,189.4-74.9z"/>
		<path d="M183.3-78.9l-4.2,4.2l-3.5-3.4c-0.5-0.5-1.3-0.5-1.8,0s-0.5,1.3,0,1.8l4.3,4.3c0.2,0.2,0.6,0.4,0.9,0.4
			c0.3,0,0.7-0.1,0.9-0.4l5.1-5.1c0.5-0.5,0.5-1.3,0-1.8C184.6-79.4,183.8-79.4,183.3-78.9z"/>
		<path d="M149.7-78.3c0.3,0,0.6-0.1,0.9-0.4l8.1-8c0,0,0.1-0.1,0.1-0.1C159.1-87,160-88,161-88c0.5,0,0.9,0.2,1.4,0.6
			c2.6,2.6,6.1,5.9,6.1,5.9c0.5,0.5,1.3,0.5,1.8-0.1c0.5-0.5,0.5-1.3,0-1.8c0,0-3.5-3.3-6-5.9c-1.2-1.2-2.4-1.4-3.3-1.4
			c-2.1,0.1-3.6,1.8-3.9,2.2l-8.1,7.9c-0.5,0.5-0.5,1.3,0,1.8C149-78.4,149.4-78.3,149.7-78.3z"/>
		<path d="M166.2-77.4c0-0.3-0.1-0.7-0.4-0.9l-4.3-4.3c-0.2-0.2-0.6-0.4-0.9-0.4c0,0,0,0,0,0c-0.3,0-0.6,0.1-0.9,0.4l-6.4,6.4
			c-0.5,0.5-0.5,1.3,0,1.8s1.3,0.5,1.8,0l5.5-5.5l2.5,2.6l-24.9,24.3c-0.5,0.5-0.5,1.3,0,1.8c0.2,0.3,0.6,0.4,0.9,0.4
			c0.3,0,0.6-0.1,0.9-0.4l25.8-25.2C166-76.8,166.2-77.1,166.2-77.4z"/>
	</g>
	<g>
		<path d="M158.8,9.5c-8.5,0-15.5,6.9-15.5,15.5s6.9,15.5,15.5,15.5s15.5-6.9,15.5-15.5S167.3,9.5,158.8,9.5z M158.8,38
			c-7.2,0-13-5.8-13-13s5.8-13,13-13s13,5.8,13,13S165.9,38,158.8,38z"/>
		<path d="M163.8,51.8c-0.7-0.1-1.3,0.4-1.4,1.1c0,0.1-0.5,3.5-3.6,3.6c-3,0-3.5-3.2-3.6-3.6c-0.1-0.7-0.7-1.2-1.4-1.1
			c-0.7,0.1-1.2,0.7-1.1,1.4c0.3,2,1.9,5.6,6,5.7c0,0,0,0,0.1,0c0,0,0,0,0.1,0c0,0,0,0,0.1,0c4.1-0.1,5.7-3.8,6-5.7
			C164.9,52.5,164.5,51.9,163.8,51.8z"/>
		<path d="M165.9,42.6h-14.3c-0.7,0-1.3,0.6-1.3,1.3s0.6,1.3,1.3,1.3h14.3c0.7,0,1.3-0.6,1.3-1.3S166.6,42.6,165.9,42.6z"/>
		<path d="M164.5,47h-11.5c-0.7,0-1.3,0.6-1.3,1.3s0.6,1.3,1.3,1.3h11.5c0.7,0,1.3-0.6,1.3-1.3S165.2,47,164.5,47z"/>
		<path d="M167.8,23.1l-1.1-0.4c-0.1-0.4-0.2-0.7-0.4-1.1l0.6-1.2c0.2-0.4,0.1-0.9-0.2-1.2l-1.8-1.8c-0.3-0.3-0.8-0.4-1.1-0.2
			l-1.1,0.5c-0.3-0.2-0.7-0.4-1-0.5l-0.4-1.2c-0.1-0.4-0.5-0.7-1-0.7h-2.5c-0.4,0-0.8,0.3-0.9,0.7l-0.4,1.1
			c-0.4,0.1-0.7,0.2-1.1,0.4l-1.2-0.7c-0.4-0.2-0.9-0.1-1.2,0.2l-1.8,1.8c-0.3,0.3-0.4,0.8-0.2,1.1l0.5,1.1
			c-0.2,0.3-0.4,0.7-0.5,1.1l-1.3,0.4c-0.4,0.1-0.7,0.5-0.7,1v2.5c0,0.4,0.3,0.8,0.7,0.9l1.1,0.4c0.1,0.3,0.2,0.7,0.4,1l-0.7,1.2
			c-0.2,0.4-0.1,0.9,0.2,1.2l1.8,1.8c0.3,0.3,0.8,0.4,1.1,0.2l1.1-0.5c0.3,0.2,0.7,0.3,1,0.5l0.4,1.3c0.1,0.4,0.5,0.7,1,0.7h2.5
			c0.4,0,0.8-0.3,0.9-0.7l0.4-1.1c0.4-0.1,0.8-0.3,1.2-0.4l1.1,0.6c0.4,0.2,0.9,0.1,1.2-0.2l1.8-1.8c0.3-0.3,0.4-0.7,0.2-1.1
			l-0.5-1.1c0.2-0.3,0.4-0.6,0.5-1l1.3-0.4c0.4-0.1,0.7-0.5,0.7-1V24C168.4,23.6,168.2,23.2,167.8,23.1z M166.4,25.8l-0.9,0.3
			c-0.4,0.1-0.7,0.4-0.8,0.7c-0.1,0.5-0.4,0.9-0.7,1.5c-0.2,0.3-0.2,0.6-0.1,1l0.4,0.9l-0.7,0.7l-0.9-0.5c-0.3-0.2-0.7-0.2-1,0
			c-0.5,0.3-1.1,0.5-1.7,0.6c-0.3,0.1-0.6,0.3-0.7,0.6l-0.3,1h-1.1l-0.3-0.9c-0.1-0.4-0.3-0.7-0.7-0.8c-0.5-0.2-1.1-0.4-1.5-0.7
			c-0.3-0.2-0.7-0.2-1-0.1l-0.9,0.5l-0.7-0.7l0.5-0.9c0.2-0.3,0.3-0.7,0.1-1.1c-0.3-0.5-0.5-1-0.6-1.6c-0.1-0.3-0.3-0.6-0.6-0.7
			l-1-0.3v-1l1.1-0.3c0.3-0.1,0.6-0.3,0.7-0.7c0.2-0.6,0.4-1.1,0.7-1.6c0.2-0.3,0.2-0.8,0-1.1l-0.4-0.9l0.7-0.7l1,0.6
			c0.3,0.2,0.6,0.2,0.9,0c0.5-0.3,1-0.5,1.6-0.6c0.3-0.1,0.6-0.3,0.7-0.7l0.3-0.9h1l0.3,1c0,0.1,0,0.1,0.1,0.2
			c0.2,0.3,0.4,0.4,0.7,0.5c0.5,0.1,0.9,0.4,1.4,0.7c0.3,0.2,0.7,0.2,1,0.1l0.9-0.4l0.7,0.7l-0.5,0.9c-0.2,0.3-0.2,0.7-0.1,1
			c0.3,0.5,0.5,1,0.6,1.6c0.1,0.3,0.3,0.6,0.6,0.7l1,0.3V25.8z"/>
		<path d="M158.8,20.5c-2.5,0-4.5,2-4.5,4.5s2,4.5,4.5,4.5c2.5,0,4.5-2,4.5-4.5S161.3,20.5,158.8,20.5z M158.8,27.5
			c-1.4,0-2.5-1.1-2.5-2.5s1.1-2.5,2.5-2.5c1.4,0,2.5,1.1,2.5,2.5S160.2,27.5,158.8,27.5z"/>
		<path d="M158.8,7.3c0.7,0,1.3-0.6,1.3-1.3v-7c0-0.7-0.6-1.3-1.3-1.3s-1.3,0.6-1.3,1.3v7C157.5,6.7,158.1,7.3,158.8,7.3z"/>
		<path d="M184.3,22.9h-7c-0.7,0-1.3,0.6-1.3,1.3s0.6,1.3,1.3,1.3h7c0.7,0,1.3-0.6,1.3-1.3S185,22.9,184.3,22.9z"/>
		<path d="M175.8,33.9c-0.5-0.5-1.3-0.5-1.8,0s-0.5,1.3,0,1.8l5,4.9c0.2,0.2,0.6,0.4,0.9,0.4s0.6-0.1,0.9-0.4c0.5-0.5,0.5-1.3,0-1.8
			L175.8,33.9z"/>
		<path d="M172.4,11.9c0.3,0,0.6-0.1,0.9-0.4l4.9-4.9c0.5-0.5,0.5-1.3,0-1.8s-1.3-0.5-1.8,0l-4.9,4.9c-0.5,0.5-0.5,1.3,0,1.8
			C171.7,11.7,172,11.9,172.4,11.9z"/>
		<path d="M140.7,24.3c0-0.7-0.6-1.3-1.3-1.3h-7c-0.7,0-1.3,0.6-1.3,1.3s0.6,1.3,1.3,1.3h7C140.1,25.5,140.7,25,140.7,24.3z"/>
		<path d="M141.4,13.7c0.2,0.2,0.6,0.4,0.9,0.4s0.6-0.1,0.9-0.4c0.5-0.5,0.5-1.3,0-1.8l-4.9-5c-0.5-0.5-1.3-0.5-1.8,0
			s-0.5,1.3,0,1.8L141.4,13.7z"/>
		<path d="M143.1,36l-5,5c-0.5,0.5-0.5,1.3,0,1.8c0.2,0.2,0.6,0.4,0.9,0.4s0.6-0.1,0.9-0.4l5-5c0.5-0.5,0.5-1.3,0-1.8
			S143.6,35.5,143.1,36z"/>
	</g>
	<g>
		<path d="M-240.4-74.5c5.1,0,9.3-4.1,9.3-9.3s-4.1-9.3-9.3-9.3s-9.3,4.1-9.3,9.3S-245.5-74.5-240.4-74.5z M-240.4-90.5
			c3.7,0,6.8,3,6.8,6.8s-3,6.8-6.8,6.8s-6.8-3-6.8-6.8S-244.1-90.5-240.4-90.5z"/>
		<path d="M-253.6-60.6c0.8,1.5,5.3,6.1,12.6,12.7l0.8,0.8l0.8-0.8c7.2-6.5,11.2-10.8,12-12.7l0,0c0.6-1.2,1-2.6,1-3.9
			c0-4.6-3.7-8.4-8.4-8.4c-2.2,0-4.2,0.9-5.8,2.4c-1.5-1.6-3.6-2.4-5.8-2.4c-4.6,0-8.4,3.7-8.4,8.4
			C-254.5-63.2-254.2-61.8-253.6-60.6L-253.6-60.6z M-246.2-70.4c1.9,0,3.7,0.9,4.8,2.6l1,1.5l1-1.5c1.1-1.7,2.8-2.6,4.7-2.6
			c3.2,0,5.9,2.6,5.9,5.9c0,1-0.2,1.9-0.7,2.7l-0.2,0.3l0,0.1c-0.3,0.5-1.9,3-10.5,10.9c-9.3-8.5-11-10.8-11.2-11.1l-0.1-0.1
			c-0.4-0.8-0.7-1.8-0.7-2.7C-252-67.8-249.4-70.4-246.2-70.4z"/>
		<path d="M-232.6,34.9c3.2-2.7,5.2-6.7,5.2-11.2c0-8-6.5-14.6-14.6-14.6c-8,0-14.6,6.5-14.6,14.6s6.5,14.6,14.6,14.6
			c2.5,0,4.9-0.6,7-1.8l8,10.4c0.3,0.4,0.7,0.6,1.1,0.6c0.3,0,0.6-0.1,0.9-0.3c0.6-0.5,0.7-1.4,0.3-2L-232.6,34.9z M-253.6,23.8
			c0-6.4,5.2-11.7,11.7-11.7c6.4,0,11.7,5.2,11.7,11.7s-5.2,11.7-11.7,11.7C-248.3,35.5-253.6,30.2-253.6,23.8z"/>
		<path d="M-233,27.9c0.7-1.3,1.1-2.9,1.1-4.4c0-5.2-4.3-9.5-9.5-9.5c-0.6,0-1.2,0.1-1.8,0.2c-0.8,0.1-1.3,0.9-1.1,1.7
			c0.1,0.8,0.9,1.3,1.7,1.1c0.4-0.1,0.8-0.1,1.2-0.1c3.7,0,6.7,3,6.7,6.7c0,1.1-0.3,2.1-0.7,3.1c-0.4,0.7-0.1,1.6,0.6,1.9
			c0.2,0.1,0.4,0.2,0.7,0.2C-233.8,28.6-233.3,28.4-233,27.9z"/>
		<path d="M43.2,2.9h-4.8c-0.7,0-1.3,0.6-1.3,1.2V6l-2.2-2H20.3l-0.4,0.5c-1.7,2.2-4.9,5.4-6.6,5.4H12v6.2h9.3v27.4h0.1l6.2,10.3
			l6.2-10.3h0.1V16.1h1.7l1.5-1.2v1.8c0,0.7,0.6,1.3,1.3,1.3h4.8c0.7,0,1.3-0.6,1.3-1.3V4.1C44.4,3.4,43.9,2.9,43.2,2.9z M29.1,46.4
			h-3l-1.8-2.9h6.6L29.1,46.4z M23.8,41V16.1h2.5V41H23.8z M31.4,41h-2.5V16.1h2.5V41z M37.1,11.7l-2.4,1.9h-0.8H21.3h-6.8v-1.4
			c2.9-0.8,5.8-4.2,7-5.7h12.4l3.1,2.8V11.7z M41.9,15.5h-2.3v-2.5V8.2V5.4h2.3V15.5z"/>
		<path d="M-122.4-50.7h19.6c2,0,3.7-1.6,3.7-3.7v-3.2h3.9c0.7,0,1.3-0.6,1.3-1.3s-0.6-1.3-1.3-1.3h-3.9v-6.9h3.9
			c0.7,0,1.3-0.6,1.3-1.3s-0.6-1.3-1.3-1.3h-3.9v-6.9h3.9c0.7,0,1.3-0.6,1.3-1.3s-0.6-1.3-1.3-1.3h-3.9v-7.1c0-2.1-1.7-3.7-3.7-3.7
			h-15.2l-8,8.4v26.9C-126.1-52.3-124.4-50.7-122.4-50.7z M-123.6-80.2l5-5.2v4h-3.4v2.5h5.9v-8.1h13.2c0.7,0,1.2,0.6,1.2,1.2v7.1
			h-7.6c-0.7,0-1.3,0.6-1.3,1.3s0.6,1.3,1.3,1.3h7.6v6.9h-7.6c-0.7,0-1.3,0.6-1.3,1.3s0.6,1.3,1.3,1.3h7.6v6.9h-7.6
			c-0.7,0-1.3,0.6-1.3,1.3s0.6,1.3,1.3,1.3h7.6v3.2c0,0.6-0.5,1.2-1.2,1.2h-19.6c-0.6,0-1.2-0.5-1.2-1.2V-80.2z"/>
		<path d="M-117.5-75c0.2,0.2,0.6,0.4,0.9,0.4s0.6-0.1,0.9-0.4l4.6-4.6c0.5-0.5,0.5-1.3,0-1.8s-1.3-0.5-1.8,0l-3.7,3.7l-0.8-0.8
			c-0.5-0.5-1.3-0.5-1.8,0s-0.5,1.3,0,1.8L-117.5-75z"/>
		<path d="M-112-72.3c-0.5-0.5-1.3-0.5-1.8,0l-1.4,1.4l-1.4-1.4c-0.5-0.5-1.3-0.5-1.8,0s-0.5,1.3,0,1.8l1.4,1.4l-1.4,1.4
			c-0.5,0.5-0.5,1.3,0,1.8c0.2,0.2,0.6,0.4,0.9,0.4s0.6-0.1,0.9-0.4l1.4-1.4l1.4,1.4c0.2,0.2,0.6,0.4,0.9,0.4s0.6-0.1,0.9-0.4
			c0.5-0.5,0.5-1.3,0-1.8l-1.4-1.4l1.4-1.4C-111.5-71-111.5-71.8-112-72.3z"/>
		<path d="M-112-62.3c-0.5-0.5-1.3-0.5-1.8,0l-1.4,1.4l-1.4-1.4c-0.5-0.5-1.3-0.5-1.8,0s-0.5,1.3,0,1.8l1.4,1.4l-1.4,1.4
			c-0.5,0.5-0.5,1.3,0,1.8c0.2,0.2,0.6,0.4,0.9,0.4s0.6-0.1,0.9-0.4l1.4-1.4l1.4,1.4c0.2,0.2,0.6,0.4,0.9,0.4s0.6-0.1,0.9-0.4
			c0.5-0.5,0.5-1.3,0-1.8l-1.4-1.4l1.4-1.4C-111.5-61.1-111.5-61.9-112-62.3z"/>
		<path d="M-92.9,38.4L-95,18.1c3-0.8,5.3-3.6,5.3-6.9c0-3.9-3.2-7.1-7.1-7.1s-7.1,3.2-7.1,7.1c0,0.8,0.1,1.6,0.4,2.3L-121.3,24
			c-1.3-1.5-3.2-2.4-5.4-2.4c-3.9,0-7.1,3.2-7.1,7.1s3.2,7.1,7.1,7.1c2.2,0,4.2-1,5.6-2.7l20.9,10.1c-0.2,0.7-0.3,1.4-0.3,2.2
			c0,3.9,3.2,7.1,7.1,7.1s7.1-3.2,7.1-7.1C-86.3,41.7-89.2,38.7-92.9,38.4z M-96.9,6.6c2.6,0,4.6,2.1,4.6,4.6s-2.1,4.6-4.6,4.6
			s-4.6-2.1-4.6-4.6S-99.5,6.6-96.9,6.6z M-126.7,33.3c-2.6,0-4.6-2.1-4.6-4.6s2.1-4.6,4.6-4.6c2.6,0,4.6,2.1,4.6,4.6
			S-124.1,33.3-126.7,33.3z M-119.9,31c0.2-0.7,0.4-1.5,0.4-2.3c0-0.9-0.2-1.8-0.5-2.6l17.6-10.4c1.2,1.5,3,2.5,5,2.6l2.1,20.3
			c-1.5,0.4-2.8,1.3-3.7,2.5L-119.9,31z M-93.5,50.1c-2.6,0-4.6-2.1-4.6-4.6s2.1-4.6,4.6-4.6s4.6,2.1,4.6,4.6S-90.9,50.1-93.5,50.1z
			"/>
		<path d="M31.5-81.7c0.2-0.2,0.6-0.2,0.7-0.2c0.1,0,0.1,0,0.2,0h2.8c0.4,1.9,2.1,3.3,4.1,3.3h17.9c2.3,0,4.2-1.9,4.2-4.2v-0.5
			c0-2.3-1.9-4.2-4.2-4.2H39.3c-1.9,0-3.5,1.3-4,3.1h-2.8c-0.4,0-1.6-0.1-2.6,0.8c-0.5,0.5-1.1,1.3-1.1,2.9v9.2h-3.7v-2
			c0-3.1-2.5-5.5-5.5-5.5h-19c-3.1,0-5.5,2.5-5.5,5.5v6.8c0,3.1,2.5,5.5,5.5,5.5h19c3.1,0,5.5-2.5,5.5-5.5V-69h3.7v9.9
			c0,0.3,0,1.5,0.9,2.5c0.5,0.5,1.3,1.1,2.8,1.1h3c0.6,1.6,2.1,2.8,3.9,2.8h17.9c2.3,0,4.2-1.9,4.2-4.2v-0.5c0-2.3-1.9-4.2-4.2-4.2
			H39.3c-2.1,0-3.8,1.5-4.1,3.5h-2.8c-0.3,0-0.7,0-1-0.3c-0.2-0.2-0.2-0.7-0.2-0.7c0,0,0-0.1,0-0.1V-69h4c0.4,1.9,2.1,3.3,4.1,3.3
			h17.9c2.3,0,4.2-1.9,4.2-4.2v-0.5c0-2.3-1.9-4.2-4.2-4.2H39.3c-1.9,0-3.5,1.3-4,3h-4.1v-9.2C31.3-81.1,31.3-81.5,31.5-81.7z
			 M37.7-83.3c0-0.9,0.8-1.7,1.7-1.7h17.9c0.9,0,1.7,0.7,1.7,1.7v0.5c0,0.9-0.8,1.7-1.7,1.7H39.3c-0.9,0-1.7-0.8-1.7-1.7V-83.3z
			 M22.6-66.7c0,1.7-1.4,3-3,3h-19c-1.7,0-3-1.4-3-3v-6.8c0-1.7,1.4-3,3-3h19c1.7,0,3,1.4,3,3V-66.7z M37.7-57.4
			c0-0.9,0.8-1.7,1.7-1.7h17.9c0.9,0,1.7,0.7,1.7,1.7v0.5c0,0.9-0.8,1.7-1.7,1.7H39.3c-0.9,0-1.7-0.8-1.7-1.7V-57.4z M37.7-70.4
			c0-0.9,0.8-1.7,1.7-1.7h17.9c0.9,0,1.7,0.8,1.7,1.7v0.5c0,0.9-0.8,1.7-1.7,1.7H39.3c-0.9,0-1.7-0.8-1.7-1.7V-70.4z"/>
	</g>
</g>
</svg>
