<?xml version="1.0" encoding="utf-8"?>
<!-- Generator: Adobe Illustrator 19.0.0, SVG Export Plug-In . SVG Version: 6.00 Build 0)  -->
<svg version="1.1" xmlns="http://www.w3.org/2000/svg" xmlns:xlink="http://www.w3.org/1999/xlink" x="0px" y="0px"
	 viewBox="0 0 56.7 56.7" style="enable-background:new 0 0 56.7 56.7;fill: #FFF;" xml:space="preserve">
<g id="Layer_1">
</g>
<g id="Layer_2">
</g>
<g id="Layer_3">
	<g>
		<path d="M406.8-69.1h7.9c0.7,0,1.3-0.6,1.3-1.3s-0.6-1.3-1.3-1.3h-7.9c-0.7,0-1.3,0.6-1.3,1.3S406.1-69.1,406.8-69.1z"/>
		<path d="M403.3-71.6h-0.4c-0.7,0-1.3,0.6-1.3,1.3s0.6,1.3,1.3,1.3h0.4c0.7,0,1.3-0.6,1.3-1.3S404-71.6,403.3-71.6z"/>
		<path d="M413.5-75.2c0-0.7-0.6-1.3-1.3-1.3h-16.4c-0.7,0-1.3,0.6-1.3,1.3s0.6,1.3,1.3,1.3h16.4C413-73.9,413.5-74.5,413.5-75.2z"
			/>
		<path d="M445.9-77.8c3.6,0,6.6-2.9,6.6-6.6s-2.9-6.6-6.6-6.6s-6.6,2.9-6.6,6.6S442.3-77.8,445.9-77.8z M445.9-88.4
			c2.2,0,4.1,1.8,4.1,4.1s-1.8,4.1-4.1,4.1s-4.1-1.8-4.1-4.1S443.7-88.4,445.9-88.4z"/>
		<path d="M457.2-73c-0.5-0.5-1.3-0.5-1.8,0c-0.1,0.1-6.2,6.1-8.1,7.9c-0.8,0.8-1.4,0.6-1.7,0.3l-4.5-4.5c-0.5-0.5-1.3-0.5-1.8,0
			l-5.4,5.3c-0.3,0.3-0.4,0.8-0.3,1.2c0.1,0.4,0.4,0.8,0.8,0.9l6.1,2c0,0,0.1,0,0.1,0c0.2,0.1,0.8,0.3,0.9,0.6
			c0.1,0.3-0.2,1.1-1.4,2.3l-9.5,9.5c-0.5,0.5-0.5,1.3,0,1.8c0.2,0.2,0.6,0.4,0.9,0.4s0.6-0.1,0.9-0.4l9.5-9.5
			c1.7-1.7,2.4-3.3,2-4.7c-0.5-1.7-2.3-2.3-2.7-2.4l-4.1-1.3l3.1-3l3.7,3.7c0.1,0.1,1,1,2.5,1c0.7,0,1.7-0.2,2.8-1.3
			c1.9-1.9,8-7.8,8.1-7.9C457.7-71.7,457.7-72.5,457.2-73z"/>
		<path d="M451.1-77l-4.2,4.2l-3.5-3.4c-0.5-0.5-1.3-0.5-1.8,0s-0.5,1.3,0,1.8l4.3,4.3c0.2,0.2,0.6,0.4,0.9,0.4
			c0.3,0,0.7-0.1,0.9-0.4l5.1-5.1c0.5-0.5,0.5-1.3,0-1.8C452.3-77.4,451.6-77.4,451.1-77z"/>
		<path d="M417.4-76.3c0.3,0,0.6-0.1,0.9-0.4l8.1-8c0,0,0.1-0.1,0.1-0.1c0.3-0.3,1.2-1.3,2.2-1.3c0.5,0,0.9,0.2,1.4,0.6
			c2.6,2.6,6.1,5.9,6.1,5.9c0.5,0.5,1.3,0.5,1.8-0.1c0.5-0.5,0.5-1.3,0-1.8c0,0-3.5-3.3-6-5.9c-1.2-1.2-2.4-1.4-3.3-1.4
			c-2.1,0.1-3.6,1.8-3.9,2.2l-8.1,7.9c-0.5,0.5-0.5,1.3,0,1.8C416.8-76.5,417.1-76.3,417.4-76.3z"/>
		<path d="M433.9-75.5c0-0.3-0.1-0.7-0.4-0.9l-4.3-4.3c-0.2-0.2-0.6-0.4-0.9-0.4c0,0,0,0,0,0c-0.3,0-0.6,0.1-0.9,0.4l-6.4,6.4
			c-0.5,0.5-0.5,1.3,0,1.8s1.3,0.5,1.8,0l5.5-5.5l2.5,2.6l-24.9,24.3c-0.5,0.5-0.5,1.3,0,1.8c0.2,0.3,0.6,0.4,0.9,0.4
			c0.3,0,0.6-0.1,0.9-0.4l25.8-25.2C433.8-74.9,433.9-75.2,433.9-75.5z"/>
	</g>
	<g>
		<path d="M426.5,11.4c-8.5,0-15.5,6.9-15.5,15.5s6.9,15.5,15.5,15.5S442,35.4,442,26.9S435.1,11.4,426.5,11.4z M426.5,39.9
			c-7.2,0-13-5.8-13-13s5.8-13,13-13s13,5.8,13,13S433.7,39.9,426.5,39.9z"/>
		<path d="M431.5,53.7c-0.7-0.1-1.3,0.4-1.4,1.1c0,0.1-0.5,3.5-3.6,3.6c-3,0-3.5-3.2-3.6-3.6c-0.1-0.7-0.7-1.2-1.4-1.1
			c-0.7,0.1-1.2,0.7-1.1,1.4c0.3,2,1.9,5.6,6,5.7c0,0,0,0,0.1,0c0,0,0,0,0.1,0c0,0,0,0,0.1,0c4.1-0.1,5.7-3.8,6-5.7
			C432.7,54.5,432.2,53.8,431.5,53.7z"/>
		<path d="M433.7,44.6h-14.3c-0.7,0-1.3,0.6-1.3,1.3s0.6,1.3,1.3,1.3h14.3c0.7,0,1.3-0.6,1.3-1.3S434.4,44.6,433.7,44.6z"/>
		<path d="M432.3,48.9h-11.5c-0.7,0-1.3,0.6-1.3,1.3s0.6,1.3,1.3,1.3h11.5c0.7,0,1.3-0.6,1.3-1.3S432.9,48.9,432.3,48.9z"/>
		<path d="M435.5,25l-1.1-0.4c-0.1-0.4-0.2-0.7-0.4-1.1l0.6-1.2c0.2-0.4,0.1-0.9-0.2-1.2l-1.8-1.8c-0.3-0.3-0.8-0.4-1.1-0.2
			l-1.1,0.5c-0.3-0.2-0.7-0.4-1-0.5L429,18c-0.1-0.4-0.5-0.7-1-0.7h-2.5c-0.4,0-0.8,0.3-0.9,0.7l-0.4,1.1c-0.4,0.1-0.7,0.2-1.1,0.4
			l-1.2-0.7c-0.4-0.2-0.9-0.1-1.2,0.2l-1.8,1.8c-0.3,0.3-0.4,0.8-0.2,1.1l0.5,1.1c-0.2,0.3-0.4,0.7-0.5,1.1l-1.3,0.4
			c-0.4,0.1-0.7,0.5-0.7,1v2.5c0,0.4,0.3,0.8,0.7,0.9l1.1,0.4c0.1,0.3,0.2,0.7,0.4,1l-0.7,1.2c-0.2,0.4-0.1,0.9,0.2,1.2l1.8,1.8
			c0.3,0.3,0.8,0.4,1.1,0.2l1.1-0.5c0.3,0.2,0.7,0.3,1,0.5l0.4,1.3c0.1,0.4,0.5,0.7,1,0.7h2.5c0.4,0,0.8-0.3,0.9-0.7l0.4-1.1
			c0.4-0.1,0.8-0.3,1.2-0.4l1.1,0.6c0.4,0.2,0.9,0.1,1.2-0.2L434,33c0.3-0.3,0.4-0.7,0.2-1.1l-0.5-1.1c0.2-0.3,0.4-0.6,0.5-1
			l1.3-0.4c0.4-0.1,0.7-0.5,0.7-1v-2.5C436.2,25.5,435.9,25.1,435.5,25z M434.2,27.7l-0.9,0.3c-0.4,0.1-0.7,0.4-0.8,0.7
			c-0.1,0.5-0.4,0.9-0.7,1.5c-0.2,0.3-0.2,0.6-0.1,1l0.4,0.9l-0.7,0.7l-0.9-0.5c-0.3-0.2-0.7-0.2-1,0c-0.5,0.3-1.1,0.5-1.7,0.6
			c-0.3,0.1-0.6,0.3-0.7,0.6l-0.3,1h-1.1l-0.3-0.9c-0.1-0.4-0.3-0.7-0.7-0.8c-0.5-0.2-1.1-0.4-1.5-0.7c-0.3-0.2-0.7-0.2-1-0.1
			l-0.9,0.5l-0.7-0.7l0.5-0.9c0.2-0.3,0.3-0.7,0.1-1.1c-0.3-0.5-0.5-1-0.6-1.6c-0.1-0.3-0.3-0.6-0.6-0.7l-1-0.3v-1l1.1-0.3
			c0.3-0.1,0.6-0.3,0.7-0.7c0.2-0.6,0.4-1.1,0.7-1.6c0.2-0.3,0.2-0.8,0-1.1l-0.4-0.9l0.7-0.7l1,0.6c0.3,0.2,0.6,0.2,0.9,0
			c0.5-0.3,1-0.5,1.6-0.6c0.3-0.1,0.6-0.3,0.7-0.7l0.3-0.9h1l0.3,1c0,0.1,0,0.1,0.1,0.2c0.2,0.3,0.4,0.4,0.7,0.5
			c0.5,0.1,0.9,0.4,1.4,0.7c0.3,0.2,0.7,0.2,1,0.1l0.9-0.4l0.7,0.7l-0.5,0.9c-0.2,0.3-0.2,0.7-0.1,1c0.3,0.5,0.5,1,0.6,1.6
			c0.1,0.3,0.3,0.6,0.6,0.7l1,0.3V27.7z"/>
		<path d="M426.5,22.4c-2.5,0-4.5,2-4.5,4.5s2,4.5,4.5,4.5c2.5,0,4.5-2,4.5-4.5S429,22.4,426.5,22.4z M426.5,29.4
			c-1.4,0-2.5-1.1-2.5-2.5s1.1-2.5,2.5-2.5c1.4,0,2.5,1.1,2.5,2.5S427.9,29.4,426.5,29.4z"/>
		<path d="M426.5,9.2c0.7,0,1.3-0.6,1.3-1.3v-7c0-0.7-0.6-1.3-1.3-1.3s-1.3,0.6-1.3,1.3v7C425.3,8.6,425.8,9.2,426.5,9.2z"/>
		<path d="M452,24.8h-7c-0.7,0-1.3,0.6-1.3,1.3s0.6,1.3,1.3,1.3h7c0.7,0,1.3-0.6,1.3-1.3S452.7,24.8,452,24.8z"/>
		<path d="M443.5,35.8c-0.5-0.5-1.3-0.5-1.8,0s-0.5,1.3,0,1.8l5,4.9c0.2,0.2,0.6,0.4,0.9,0.4s0.6-0.1,0.9-0.4c0.5-0.5,0.5-1.3,0-1.8
			L443.5,35.8z"/>
		<path d="M440.1,13.8c0.3,0,0.6-0.1,0.9-0.4l4.9-4.9c0.5-0.5,0.5-1.3,0-1.8s-1.3-0.5-1.8,0l-4.9,4.9c-0.5,0.5-0.5,1.3,0,1.8
			C439.5,13.7,439.8,13.8,440.1,13.8z"/>
		<path d="M408.4,26.2c0-0.7-0.6-1.3-1.3-1.3h-7c-0.7,0-1.3,0.6-1.3,1.3s0.6,1.3,1.3,1.3h7C407.9,27.4,408.4,26.9,408.4,26.2z"/>
		<path d="M409.1,15.6c0.2,0.2,0.6,0.4,0.9,0.4s0.6-0.1,0.9-0.4c0.5-0.5,0.5-1.3,0-1.8l-4.9-5c-0.5-0.5-1.3-0.5-1.8,0
			s-0.5,1.3,0,1.8L409.1,15.6z"/>
		<path d="M410.8,37.9l-5,5c-0.5,0.5-0.5,1.3,0,1.8c0.2,0.2,0.6,0.4,0.9,0.4s0.6-0.1,0.9-0.4l5-5c0.5-0.5,0.5-1.3,0-1.8
			S411.3,37.4,410.8,37.9z"/>
	</g>
	<g>
		<path d="M27.4-72.6c5.1,0,9.3-4.1,9.3-9.3s-4.1-9.3-9.3-9.3s-9.3,4.1-9.3,9.3S22.3-72.6,27.4-72.6z M27.4-88.6
			c3.7,0,6.8,3,6.8,6.8s-3,6.8-6.8,6.8s-6.8-3-6.8-6.8S23.6-88.6,27.4-88.6z"/>
		<path d="M14.2-58.7c0.8,1.5,5.3,6.1,12.6,12.7l0.8,0.8l0.8-0.8c7.2-6.5,11.2-10.8,12-12.7l0,0c0.6-1.2,1-2.6,1-3.9
			c0-4.6-3.7-8.4-8.4-8.4c-2.2,0-4.2,0.9-5.8,2.4c-1.5-1.6-3.6-2.4-5.8-2.4c-4.6,0-8.4,3.7-8.4,8.4C13.2-61.3,13.6-59.9,14.2-58.7
			L14.2-58.7z M21.6-68.5c1.9,0,3.7,0.9,4.8,2.6l1,1.5l1-1.5c1.1-1.7,2.8-2.6,4.7-2.6c3.2,0,5.9,2.6,5.9,5.9c0,1-0.2,1.9-0.7,2.7
			l-0.2,0.3l0,0.1c-0.3,0.5-1.9,3-10.5,10.9c-9.3-8.5-11-10.8-11.2-11.1l-0.1-0.1c-0.4-0.8-0.7-1.8-0.7-2.7
			C15.7-65.9,18.3-68.5,21.6-68.5z"/>
		<path d="M35.2,36.9c3.2-2.7,5.2-6.7,5.2-11.2c0-8-6.5-14.6-14.6-14.6c-8,0-14.6,6.5-14.6,14.6s6.5,14.6,14.6,14.6
			c2.5,0,4.9-0.6,7-1.8l8,10.4c0.3,0.4,0.7,0.6,1.1,0.6c0.3,0,0.6-0.1,0.9-0.3c0.6-0.5,0.7-1.4,0.3-2L35.2,36.9z M14.2,25.7
			c0-6.4,5.2-11.7,11.7-11.7c6.4,0,11.7,5.2,11.7,11.7s-5.2,11.7-11.7,11.7C19.4,37.4,14.2,32.1,14.2,25.7z"/>
		<path d="M34.7,29.8c0.7-1.3,1.1-2.9,1.1-4.4c0-5.2-4.3-9.5-9.5-9.5c-0.6,0-1.2,0.1-1.8,0.2c-0.8,0.1-1.3,0.9-1.1,1.7
			c0.1,0.8,0.9,1.3,1.7,1.1c0.4-0.1,0.8-0.1,1.2-0.1c3.7,0,6.7,3,6.7,6.7c0,1.1-0.3,2.1-0.7,3.1c-0.4,0.7-0.1,1.6,0.6,1.9
			c0.2,0.1,0.4,0.2,0.7,0.2C34,30.6,34.5,30.3,34.7,29.8z"/>
		<path d="M310.9,4.8h-4.8c-0.7,0-1.3,0.6-1.3,1.3v1.8l-2.2-2H288l-0.4,0.5c-1.7,2.2-4.9,5.4-6.6,5.4h-1.3V18h9.3v27.4h0.1l6.2,10.3
			l6.2-10.3h0.1V18h1.7l1.5-1.2v1.8c0,0.7,0.6,1.3,1.3,1.3h4.8c0.7,0,1.3-0.6,1.3-1.3V6C312.2,5.4,311.6,4.8,310.9,4.8z M296.9,48.4
			h-3l-1.8-2.9h6.6L296.9,48.4z M291.6,42.9V18h2.5v24.9H291.6z M299.1,42.9h-2.5V18h2.5V42.9z M304.8,13.6l-2.4,1.9h-0.8h-12.6
			h-6.8v-1.4c2.9-0.8,5.8-4.2,7-5.7h12.4l3.1,2.8V13.6z M309.7,17.4h-2.3v-2.5v-4.7V7.3h2.3V17.4z"/>
		<path d="M145.3-48.7h19.6c2,0,3.7-1.6,3.7-3.7v-3.2h3.9c0.7,0,1.3-0.6,1.3-1.3s-0.6-1.3-1.3-1.3h-3.9V-65h3.9
			c0.7,0,1.3-0.6,1.3-1.3s-0.6-1.3-1.3-1.3h-3.9v-6.9h3.9c0.7,0,1.3-0.6,1.3-1.3s-0.6-1.3-1.3-1.3h-3.9v-7.1c0-2.1-1.7-3.7-3.7-3.7
			h-15.2l-8,8.4v26.9C141.7-50.4,143.3-48.7,145.3-48.7z M144.2-78.3l5-5.2v4h-3.4v2.5h5.9v-8.1h13.2c0.7,0,1.2,0.6,1.2,1.2v7.1
			h-7.6c-0.7,0-1.3,0.6-1.3,1.3s0.6,1.3,1.3,1.3h7.6v6.9h-7.6c-0.7,0-1.3,0.6-1.3,1.3s0.6,1.3,1.3,1.3h7.6v6.9h-7.6
			c-0.7,0-1.3,0.6-1.3,1.3s0.6,1.3,1.3,1.3h7.6v3.2c0,0.6-0.5,1.2-1.2,1.2h-19.6c-0.6,0-1.2-0.5-1.2-1.2V-78.3z"/>
		<path d="M150.2-73.1c0.2,0.2,0.6,0.4,0.9,0.4s0.6-0.1,0.9-0.4l4.6-4.6c0.5-0.5,0.5-1.3,0-1.8s-1.3-0.5-1.8,0l-3.7,3.7l-0.8-0.8
			c-0.5-0.5-1.3-0.5-1.8,0s-0.5,1.3,0,1.8L150.2-73.1z"/>
		<path d="M155.7-70.4c-0.5-0.5-1.3-0.5-1.8,0l-1.4,1.4l-1.4-1.4c-0.5-0.5-1.3-0.5-1.8,0s-0.5,1.3,0,1.8l1.4,1.4l-1.4,1.4
			c-0.5,0.5-0.5,1.3,0,1.8c0.2,0.2,0.6,0.4,0.9,0.4s0.6-0.1,0.9-0.4l1.4-1.4L154-64c0.2,0.2,0.6,0.4,0.9,0.4s0.6-0.1,0.9-0.4
			c0.5-0.5,0.5-1.3,0-1.8l-1.4-1.4l1.4-1.4C156.2-69.1,156.2-69.9,155.7-70.4z"/>
		<path d="M155.7-60.4c-0.5-0.5-1.3-0.5-1.8,0l-1.4,1.4l-1.4-1.4c-0.5-0.5-1.3-0.5-1.8,0s-0.5,1.3,0,1.8l1.4,1.4l-1.4,1.4
			c-0.5,0.5-0.5,1.3,0,1.8c0.2,0.2,0.6,0.4,0.9,0.4s0.6-0.1,0.9-0.4l1.4-1.4L154-54c0.2,0.2,0.6,0.4,0.9,0.4s0.6-0.1,0.9-0.4
			c0.5-0.5,0.5-1.3,0-1.8l-1.4-1.4l1.4-1.4C156.2-59.1,156.2-59.9,155.7-60.4z"/>
		<path d="M174.8,40.3L172.7,20c3-0.8,5.3-3.6,5.3-6.9c0-3.9-3.2-7.1-7.1-7.1s-7.1,3.2-7.1,7.1c0,0.8,0.1,1.6,0.4,2.3l-17.7,10.5
			c-1.3-1.5-3.2-2.4-5.4-2.4c-3.9,0-7.1,3.2-7.1,7.1s3.2,7.1,7.1,7.1c2.2,0,4.2-1,5.6-2.7l20.9,10.1c-0.2,0.7-0.3,1.4-0.3,2.2
			c0,3.9,3.2,7.1,7.1,7.1s7.1-3.2,7.1-7.1C181.4,43.7,178.5,40.6,174.8,40.3z M170.9,8.5c2.6,0,4.6,2.1,4.6,4.6s-2.1,4.6-4.6,4.6
			s-4.6-2.1-4.6-4.6S168.3,8.5,170.9,8.5z M141.1,35.2c-2.6,0-4.6-2.1-4.6-4.6s2.1-4.6,4.6-4.6s4.6,2.1,4.6,4.6
			S143.6,35.2,141.1,35.2z M147.8,32.9c0.2-0.7,0.4-1.5,0.4-2.3c0-0.9-0.2-1.8-0.5-2.6l17.6-10.4c1.2,1.5,3,2.5,5,2.6l2.1,20.3
			c-1.5,0.4-2.8,1.3-3.7,2.5L147.8,32.9z M174.3,52c-2.6,0-4.6-2.1-4.6-4.6s2.1-4.6,4.6-4.6s4.6,2.1,4.6,4.6S176.8,52,174.3,52z"/>
		<path d="M299.3-79.8c0.2-0.2,0.6-0.2,0.7-0.2c0.1,0,0.1,0,0.2,0h2.8c0.4,1.9,2.1,3.3,4.1,3.3H325c2.3,0,4.2-1.9,4.2-4.2v-0.5
			c0-2.3-1.9-4.2-4.2-4.2h-17.9c-1.9,0-3.5,1.3-4,3.1h-2.8c-0.4,0-1.6-0.1-2.6,0.8c-0.5,0.5-1.1,1.3-1.1,2.9v9.2h-3.7v-2
			c0-3.1-2.5-5.5-5.5-5.5h-19c-3.1,0-5.5,2.5-5.5,5.5v6.8c0,3.1,2.5,5.5,5.5,5.5h19c3.1,0,5.5-2.5,5.5-5.5v-2.3h3.7v9.9
			c0,0.3,0,1.5,0.9,2.5c0.5,0.5,1.3,1.1,2.8,1.1h3c0.6,1.6,2.1,2.8,3.9,2.8H325c2.3,0,4.2-1.9,4.2-4.2v-0.5c0-2.3-1.9-4.2-4.2-4.2
			h-17.9c-2.1,0-3.8,1.5-4.1,3.5h-2.8c-0.3,0-0.7,0-1-0.3c-0.2-0.2-0.2-0.7-0.2-0.7c0,0,0-0.1,0-0.1v-9.9h4c0.4,1.9,2.1,3.3,4.1,3.3
			H325c2.3,0,4.2-1.9,4.2-4.2v-0.5c0-2.3-1.9-4.2-4.2-4.2h-17.9c-1.9,0-3.5,1.3-4,3H299v-9.2C299-79.2,299.1-79.6,299.3-79.8z
			 M305.4-81.4c0-0.9,0.8-1.7,1.7-1.7H325c0.9,0,1.7,0.7,1.7,1.7v0.5c0,0.9-0.8,1.7-1.7,1.7h-17.9c-0.9,0-1.7-0.8-1.7-1.7V-81.4z
			 M290.4-64.8c0,1.7-1.4,3-3,3h-19c-1.7,0-3-1.4-3-3v-6.8c0-1.7,1.4-3,3-3h19c1.7,0,3,1.4,3,3V-64.8z M305.4-55.5
			c0-0.9,0.8-1.7,1.7-1.7H325c0.9,0,1.7,0.7,1.7,1.7v0.5c0,0.9-0.8,1.7-1.7,1.7h-17.9c-0.9,0-1.7-0.8-1.7-1.7V-55.5z M305.4-68.5
			c0-0.9,0.8-1.7,1.7-1.7H325c0.9,0,1.7,0.8,1.7,1.7v0.5c0,0.9-0.8,1.7-1.7,1.7h-17.9c-0.9,0-1.7-0.8-1.7-1.7V-68.5z"/>
	</g>
</g>
</svg>
