<?xml version="1.0" encoding="utf-8"?>
<!-- Generator: Adobe Illustrator 19.0.0, SVG Export Plug-In . SVG Version: 6.00 Build 0)  -->
<svg version="1.1" xmlns="http://www.w3.org/2000/svg" xmlns:xlink="http://www.w3.org/1999/xlink" x="0px" y="0px"
	 viewBox="0 0 85 70.9" style="enable-background:new 0 0 85 70.9; fill: #FFF;" xml:space="preserve">
<g id="Layer_1">
</g>
<g id="Layer_2">
</g>
<g id="Layer_3">
	<g>
		<path d="M23.2-61.6h7.9c0.7,0,1.3-0.6,1.3-1.3s-0.6-1.3-1.3-1.3h-7.9c-0.7,0-1.3,0.6-1.3,1.3S22.5-61.6,23.2-61.6z"/>
		<path d="M19.7-64.1h-0.4c-0.7,0-1.3,0.6-1.3,1.3s0.6,1.3,1.3,1.3h0.4c0.7,0,1.3-0.6,1.3-1.3S20.4-64.1,19.7-64.1z"/>
		<path d="M29.9-67.6c0-0.7-0.6-1.3-1.3-1.3H12.3c-0.7,0-1.3,0.6-1.3,1.3s0.6,1.3,1.3,1.3h16.4C29.4-66.4,29.9-66.9,29.9-67.6z"/>
		<path d="M62.3-70.2c3.6,0,6.6-2.9,6.6-6.6s-2.9-6.6-6.6-6.6s-6.6,2.9-6.6,6.6S58.7-70.2,62.3-70.2z M62.3-80.9
			c2.2,0,4.1,1.8,4.1,4.1s-1.8,4.1-4.1,4.1s-4.1-1.8-4.1-4.1S60.1-80.9,62.3-80.9z"/>
		<path d="M73.6-65.4c-0.5-0.5-1.3-0.5-1.8,0c-0.1,0.1-6.2,6.1-8.1,7.9c-0.8,0.8-1.4,0.6-1.7,0.3l-4.5-4.5c-0.5-0.5-1.3-0.5-1.8,0
			l-5.4,5.3c-0.3,0.3-0.4,0.8-0.3,1.2c0.1,0.4,0.4,0.8,0.8,0.9l6.1,2c0,0,0.1,0,0.1,0c0.2,0.1,0.8,0.3,0.9,0.6
			c0.1,0.3-0.2,1.1-1.4,2.3L47-40c-0.5,0.5-0.5,1.3,0,1.8c0.2,0.2,0.6,0.4,0.9,0.4s0.6-0.1,0.9-0.4l9.5-9.5c1.7-1.7,2.4-3.3,2-4.7
			c-0.5-1.7-2.3-2.3-2.7-2.4l-4.1-1.3l3.1-3l3.7,3.7c0.1,0.1,1,1,2.5,1c0.7,0,1.7-0.2,2.8-1.3c1.9-1.9,8-7.8,8.1-7.9
			C74.1-64.1,74.1-64.9,73.6-65.4z"/>
		<path d="M67.5-69.4l-4.2,4.2l-3.5-3.4c-0.5-0.5-1.3-0.5-1.8,0s-0.5,1.3,0,1.8l4.3,4.3c0.2,0.2,0.6,0.4,0.9,0.4
			c0.3,0,0.7-0.1,0.9-0.4l5.1-5.1c0.5-0.5,0.5-1.3,0-1.8C68.8-69.9,68-69.9,67.5-69.4z"/>
		<path d="M33.9-68.8c0.3,0,0.6-0.1,0.9-0.4l8.1-8c0,0,0.1-0.1,0.1-0.1c0.3-0.3,1.2-1.3,2.2-1.3c0.5,0,0.9,0.2,1.4,0.6
			c2.6,2.6,6.1,5.9,6.1,5.9c0.5,0.5,1.3,0.5,1.8-0.1c0.5-0.5,0.5-1.3,0-1.8c0,0-3.5-3.3-6-5.9c-1.2-1.2-2.4-1.4-3.3-1.4
			c-2.1,0.1-3.6,1.8-3.9,2.2L33-70.9c-0.5,0.5-0.5,1.3,0,1.8C33.2-68.9,33.5-68.8,33.9-68.8z"/>
		<path d="M50.3-68c0-0.3-0.1-0.7-0.4-0.9l-4.3-4.3c-0.2-0.2-0.6-0.4-0.9-0.4c0,0,0,0,0,0c-0.3,0-0.6,0.1-0.9,0.4l-6.4,6.4
			c-0.5,0.5-0.5,1.3,0,1.8s1.3,0.5,1.8,0l5.5-5.5l2.5,2.6L22.4-43.6c-0.5,0.5-0.5,1.3,0,1.8c0.2,0.3,0.6,0.4,0.9,0.4
			c0.3,0,0.6-0.1,0.9-0.4l25.8-25.2C50.2-67.3,50.3-67.6,50.3-68z"/>
	</g>
	<g>
		<path d="M42.9,19c-8.5,0-15.5,6.9-15.5,15.5s6.9,15.5,15.5,15.5S58.4,43,58.4,34.5S51.5,19,42.9,19z M42.9,47.4
			c-7.2,0-13-5.8-13-13s5.8-13,13-13s13,5.8,13,13S50.1,47.4,42.9,47.4z"/>
		<path d="M47.9,61.3c-0.7-0.1-1.3,0.4-1.4,1.1c0,0.1-0.5,3.5-3.6,3.6c-3,0-3.5-3.2-3.6-3.6c-0.1-0.7-0.7-1.2-1.4-1.1
			c-0.7,0.1-1.2,0.7-1.1,1.4c0.3,2,1.9,5.6,6,5.7c0,0,0,0,0.1,0c0,0,0,0,0.1,0c0,0,0,0,0.1,0c4.1-0.1,5.7-3.8,6-5.7
			C49.1,62,48.6,61.4,47.9,61.3z"/>
		<path d="M50.1,52.1H35.8c-0.7,0-1.3,0.6-1.3,1.3s0.6,1.3,1.3,1.3h14.3c0.7,0,1.3-0.6,1.3-1.3S50.8,52.1,50.1,52.1z"/>
		<path d="M48.7,56.5H37.2c-0.7,0-1.3,0.6-1.3,1.3s0.6,1.3,1.3,1.3h11.5c0.7,0,1.3-0.6,1.3-1.3S49.4,56.5,48.7,56.5z"/>
		<path d="M51.9,32.6l-1.1-0.4c-0.1-0.4-0.2-0.7-0.4-1.1l0.6-1.2c0.2-0.4,0.1-0.9-0.2-1.2L49.1,27c-0.3-0.3-0.8-0.4-1.1-0.2
			l-1.1,0.5c-0.3-0.2-0.7-0.4-1-0.5l-0.4-1.2c-0.1-0.4-0.5-0.7-1-0.7H42c-0.4,0-0.8,0.3-0.9,0.7l-0.4,1.1c-0.4,0.1-0.7,0.2-1.1,0.4
			l-1.2-0.7c-0.4-0.2-0.9-0.1-1.2,0.2l-1.8,1.8c-0.3,0.3-0.4,0.8-0.2,1.1l0.5,1.1c-0.2,0.3-0.4,0.7-0.5,1.1L34,32
			c-0.4,0.1-0.7,0.5-0.7,1v2.5c0,0.4,0.3,0.8,0.7,0.9l1.1,0.4c0.1,0.3,0.2,0.7,0.4,1L34.8,39c-0.2,0.4-0.1,0.9,0.2,1.2l1.8,1.8
			c0.3,0.3,0.8,0.4,1.1,0.2l1.1-0.5c0.3,0.2,0.7,0.3,1,0.5l0.4,1.3c0.1,0.4,0.5,0.7,1,0.7h2.5c0.4,0,0.8-0.3,0.9-0.7l0.4-1.1
			c0.4-0.1,0.8-0.3,1.2-0.4l1.1,0.6c0.4,0.2,0.9,0.1,1.2-0.2l1.8-1.8c0.3-0.3,0.4-0.7,0.2-1.1l-0.5-1.1c0.2-0.3,0.4-0.6,0.5-1
			l1.3-0.4c0.4-0.1,0.7-0.5,0.7-1v-2.5C52.6,33.1,52.3,32.7,51.9,32.6z M50.6,35.3l-0.9,0.3c-0.4,0.1-0.7,0.4-0.8,0.7
			c-0.1,0.5-0.4,0.9-0.7,1.5c-0.2,0.3-0.2,0.6-0.1,1l0.4,0.9l-0.7,0.7l-0.9-0.5c-0.3-0.2-0.7-0.2-1,0c-0.5,0.3-1.1,0.5-1.7,0.6
			c-0.3,0.1-0.6,0.3-0.7,0.6l-0.3,1h-1.1l-0.3-0.9c-0.1-0.4-0.3-0.7-0.7-0.8c-0.5-0.2-1.1-0.4-1.5-0.7c-0.3-0.2-0.7-0.2-1-0.1
			L37.7,40l-0.7-0.7l0.5-0.9c0.2-0.3,0.3-0.7,0.1-1.1c-0.3-0.5-0.5-1-0.6-1.6c-0.1-0.3-0.3-0.6-0.6-0.7l-1-0.3v-1l1.1-0.3
			c0.3-0.1,0.6-0.3,0.7-0.7c0.2-0.6,0.4-1.1,0.7-1.6c0.2-0.3,0.2-0.8,0-1.1l-0.4-0.9l0.7-0.7l1,0.6c0.3,0.2,0.6,0.2,0.9,0
			c0.5-0.3,1-0.5,1.6-0.6c0.3-0.1,0.6-0.3,0.7-0.7l0.3-0.9h1l0.3,1c0,0.1,0,0.1,0.1,0.2c0.2,0.3,0.4,0.4,0.7,0.5
			c0.5,0.1,0.9,0.4,1.4,0.7c0.3,0.2,0.7,0.2,1,0.1l0.9-0.4l0.7,0.7l-0.5,0.9c-0.2,0.3-0.2,0.7-0.1,1c0.3,0.5,0.5,1,0.6,1.6
			c0.1,0.3,0.3,0.6,0.6,0.7l1,0.3V35.3z"/>
		<path d="M42.9,30c-2.5,0-4.5,2-4.5,4.5s2,4.5,4.5,4.5c2.5,0,4.5-2,4.5-4.5S45.4,30,42.9,30z M42.9,37c-1.4,0-2.5-1.1-2.5-2.5
			s1.1-2.5,2.5-2.5c1.4,0,2.5,1.1,2.5,2.5S44.3,37,42.9,37z"/>
		<path d="M42.9,16.7c0.7,0,1.3-0.6,1.3-1.3v-7c0-0.7-0.6-1.3-1.3-1.3s-1.3,0.6-1.3,1.3v7C41.7,16.2,42.3,16.7,42.9,16.7z"/>
		<path d="M68.4,32.4h-7c-0.7,0-1.3,0.6-1.3,1.3s0.6,1.3,1.3,1.3h7c0.7,0,1.3-0.6,1.3-1.3S69.1,32.4,68.4,32.4z"/>
		<path d="M60,43.4c-0.5-0.5-1.3-0.5-1.8,0s-0.5,1.3,0,1.8l5,4.9c0.2,0.2,0.6,0.4,0.9,0.4s0.6-0.1,0.9-0.4c0.5-0.5,0.5-1.3,0-1.8
			L60,43.4z"/>
		<path d="M56.5,21.4c0.3,0,0.6-0.1,0.9-0.4l4.9-4.9c0.5-0.5,0.5-1.3,0-1.8s-1.3-0.5-1.8,0l-4.9,4.9c-0.5,0.5-0.5,1.3,0,1.8
			C55.9,21.2,56.2,21.4,56.5,21.4z"/>
		<path d="M24.8,33.8c0-0.7-0.6-1.3-1.3-1.3h-7c-0.7,0-1.3,0.6-1.3,1.3s0.6,1.3,1.3,1.3h7C24.3,35,24.8,34.5,24.8,33.8z"/>
		<path d="M25.5,23.2c0.2,0.2,0.6,0.4,0.9,0.4s0.6-0.1,0.9-0.4c0.5-0.5,0.5-1.3,0-1.8l-4.9-5c-0.5-0.5-1.3-0.5-1.8,0s-0.5,1.3,0,1.8
			L25.5,23.2z"/>
		<path d="M27.2,45.5l-5,5c-0.5,0.5-0.5,1.3,0,1.8c0.2,0.2,0.6,0.4,0.9,0.4s0.6-0.1,0.9-0.4l5-5c0.5-0.5,0.5-1.3,0-1.8
			S27.7,45,27.2,45.5z"/>
	</g>
	<g>
		<path d="M-356.2-65.1c5.1,0,9.3-4.1,9.3-9.3s-4.1-9.3-9.3-9.3s-9.3,4.1-9.3,9.3S-361.3-65.1-356.2-65.1z M-356.2-81.1
			c3.7,0,6.8,3,6.8,6.8s-3,6.8-6.8,6.8s-6.8-3-6.8-6.8S-360-81.1-356.2-81.1z"/>
		<path d="M-369.4-51.1c0.8,1.5,5.3,6.1,12.6,12.7l0.8,0.8l0.8-0.8c7.2-6.5,11.2-10.8,12-12.7l0,0c0.6-1.2,1-2.6,1-3.9
			c0-4.6-3.7-8.4-8.4-8.4c-2.2,0-4.2,0.9-5.8,2.4c-1.5-1.6-3.6-2.4-5.8-2.4c-4.6,0-8.4,3.7-8.4,8.4C-370.4-53.7-370-52.3-369.4-51.1
			L-369.4-51.1z M-362-60.9c1.9,0,3.7,0.9,4.8,2.6l1,1.5l1-1.5c1.1-1.7,2.8-2.6,4.7-2.6c3.2,0,5.9,2.6,5.9,5.9c0,1-0.2,1.9-0.7,2.7
			l-0.2,0.3l0,0.1c-0.3,0.5-1.9,3-10.5,10.9c-9.3-8.5-11-10.8-11.2-11.1l-0.1-0.1c-0.4-0.8-0.7-1.8-0.7-2.7
			C-367.9-58.3-365.2-60.9-362-60.9z"/>
		<path d="M-348.4,44.4c3.2-2.7,5.2-6.7,5.2-11.2c0-8-6.5-14.6-14.6-14.6c-8,0-14.6,6.5-14.6,14.6s6.5,14.6,14.6,14.6
			c2.5,0,4.9-0.6,7-1.8l8,10.4c0.3,0.4,0.7,0.6,1.1,0.6c0.3,0,0.6-0.1,0.9-0.3c0.6-0.5,0.7-1.4,0.3-2L-348.4,44.4z M-369.4,33.3
			c0-6.4,5.2-11.7,11.7-11.7c6.4,0,11.7,5.2,11.7,11.7S-351.3,45-357.7,45C-364.2,45-369.4,39.7-369.4,33.3z"/>
		<path d="M-348.8,37.4c0.7-1.3,1.1-2.9,1.1-4.4c0-5.2-4.3-9.5-9.5-9.5c-0.6,0-1.2,0.1-1.8,0.2c-0.8,0.1-1.3,0.9-1.1,1.7
			c0.1,0.8,0.9,1.3,1.7,1.1c0.4-0.1,0.8-0.1,1.2-0.1c3.7,0,6.7,3,6.7,6.7c0,1.1-0.3,2.1-0.7,3.1c-0.4,0.7-0.1,1.6,0.6,1.9
			c0.2,0.1,0.4,0.2,0.7,0.2C-349.6,38.1-349.1,37.9-348.8,37.4z"/>
		<path d="M-72.7,12.4h-4.8c-0.7,0-1.3,0.6-1.3,1.3v1.8l-2.2-2h-14.6l-0.4,0.5c-1.7,2.2-4.9,5.4-6.6,5.4h-1.3v6.2h9.3V53h0.1
			l6.2,10.3L-82,53h0.1V25.6h1.7l1.5-1.2v1.8c0,0.7,0.6,1.3,1.3,1.3h4.8c0.7,0,1.3-0.6,1.3-1.3V13.6C-71.4,12.9-72,12.4-72.7,12.4z
			 M-86.7,55.9h-3l-1.8-2.9h6.6L-86.7,55.9z M-92,50.5V25.6h2.5v24.9H-92z M-84.4,50.5H-87V25.6h2.5V50.5z M-78.7,21.2l-2.4,1.9
			h-0.8h-12.6h-6.8v-1.4c2.9-0.8,5.8-4.2,7-5.7h12.4l3.1,2.8V21.2z M-73.9,25h-2.3v-2.5v-4.7v-2.9h2.3V25z"/>
		<path d="M-238.3-41.2h19.6c2,0,3.7-1.6,3.7-3.7V-48h3.9c0.7,0,1.3-0.6,1.3-1.3s-0.6-1.3-1.3-1.3h-3.9v-6.9h3.9
			c0.7,0,1.3-0.6,1.3-1.3s-0.6-1.3-1.3-1.3h-3.9v-6.9h3.9c0.7,0,1.3-0.6,1.3-1.3s-0.6-1.3-1.3-1.3h-3.9v-7.1c0-2.1-1.7-3.7-3.7-3.7
			H-234l-8,8.4v26.9C-241.9-42.8-240.3-41.2-238.3-41.2z M-239.4-70.7l5-5.2v4h-3.4v2.5h5.9v-8.1h13.2c0.7,0,1.2,0.6,1.2,1.2v7.1
			h-7.6c-0.7,0-1.3,0.6-1.3,1.3s0.6,1.3,1.3,1.3h7.6v6.9h-7.6c-0.7,0-1.3,0.6-1.3,1.3s0.6,1.3,1.3,1.3h7.6v6.9h-7.6
			c-0.7,0-1.3,0.6-1.3,1.3s0.6,1.3,1.3,1.3h7.6v3.2c0,0.6-0.5,1.2-1.2,1.2h-19.6c-0.6,0-1.2-0.5-1.2-1.2V-70.7z"/>
		<path d="M-233.4-65.5c0.2,0.2,0.6,0.4,0.9,0.4s0.6-0.1,0.9-0.4l4.6-4.6c0.5-0.5,0.5-1.3,0-1.8s-1.3-0.5-1.8,0l-3.7,3.7l-0.8-0.8
			c-0.5-0.5-1.3-0.5-1.8,0s-0.5,1.3,0,1.8L-233.4-65.5z"/>
		<path d="M-227.9-62.8c-0.5-0.5-1.3-0.5-1.8,0l-1.4,1.4l-1.4-1.4c-0.5-0.5-1.3-0.5-1.8,0s-0.5,1.3,0,1.8l1.4,1.4l-1.4,1.4
			c-0.5,0.5-0.5,1.3,0,1.8c0.2,0.2,0.6,0.4,0.9,0.4s0.6-0.1,0.9-0.4l1.4-1.4l1.4,1.4c0.2,0.2,0.6,0.4,0.9,0.4s0.6-0.1,0.9-0.4
			c0.5-0.5,0.5-1.3,0-1.8l-1.4-1.4l1.4-1.4C-227.4-61.5-227.4-62.3-227.9-62.8z"/>
		<path d="M-227.9-52.9c-0.5-0.5-1.3-0.5-1.8,0l-1.4,1.4l-1.4-1.4c-0.5-0.5-1.3-0.5-1.8,0s-0.5,1.3,0,1.8l1.4,1.4l-1.4,1.4
			c-0.5,0.5-0.5,1.3,0,1.8c0.2,0.2,0.6,0.4,0.9,0.4s0.6-0.1,0.9-0.4l1.4-1.4l1.4,1.4c0.2,0.2,0.6,0.4,0.9,0.4s0.6-0.1,0.9-0.4
			c0.5-0.5,0.5-1.3,0-1.8l-1.4-1.4l1.4-1.4C-227.4-51.6-227.4-52.4-227.9-52.9z"/>
		<path d="M-208.7,47.9l-2.1-20.3c3-0.8,5.3-3.6,5.3-6.9c0-3.9-3.2-7.1-7.1-7.1s-7.1,3.2-7.1,7.1c0,0.8,0.1,1.6,0.4,2.3l-17.7,10.5
			c-1.3-1.5-3.2-2.4-5.4-2.4c-3.9,0-7.1,3.2-7.1,7.1s3.2,7.1,7.1,7.1c2.2,0,4.2-1,5.6-2.7l20.9,10.1c-0.2,0.7-0.3,1.4-0.3,2.2
			c0,3.9,3.2,7.1,7.1,7.1s7.1-3.2,7.1-7.1C-202.2,51.2-205.1,48.2-208.7,47.9z M-212.7,16.1c2.6,0,4.6,2.1,4.6,4.6s-2.1,4.6-4.6,4.6
			s-4.6-2.1-4.6-4.6S-215.3,16.1-212.7,16.1z M-242.5,42.8c-2.6,0-4.6-2.1-4.6-4.6s2.1-4.6,4.6-4.6s4.6,2.1,4.6,4.6
			S-240,42.8-242.5,42.8z M-235.8,40.5c0.2-0.7,0.4-1.5,0.4-2.3c0-0.9-0.2-1.8-0.5-2.6l17.6-10.4c1.2,1.5,3,2.5,5,2.6l2.1,20.3
			c-1.5,0.4-2.8,1.3-3.7,2.5L-235.8,40.5z M-209.3,59.6c-2.6,0-4.6-2.1-4.6-4.6s2.1-4.6,4.6-4.6s4.6,2.1,4.6,4.6
			S-206.8,59.6-209.3,59.6z"/>
		<path d="M-84.3-72.2c0.2-0.2,0.6-0.2,0.7-0.2c0.1,0,0.1,0,0.2,0h2.8c0.4,1.9,2.1,3.3,4.1,3.3h17.9c2.3,0,4.2-1.9,4.2-4.2v-0.5
			c0-2.3-1.9-4.2-4.2-4.2h-17.9c-1.9,0-3.5,1.3-4,3.1h-2.8c-0.4,0-1.6-0.1-2.6,0.8c-0.5,0.5-1.1,1.3-1.1,2.9v9.2h-3.7v-2
			c0-3.1-2.5-5.5-5.5-5.5h-19c-3.1,0-5.5,2.5-5.5,5.5v6.8c0,3.1,2.5,5.5,5.5,5.5h19c3.1,0,5.5-2.5,5.5-5.5v-2.3h3.7v9.9
			c0,0.3,0,1.5,0.9,2.5c0.5,0.5,1.3,1.1,2.8,1.1h3c0.6,1.6,2.1,2.8,3.9,2.8h17.9c2.3,0,4.2-1.9,4.2-4.2v-0.5c0-2.3-1.9-4.2-4.2-4.2
			h-17.9c-2.1,0-3.8,1.5-4.1,3.5h-2.8c-0.3,0-0.7,0-1-0.3c-0.2-0.2-0.2-0.7-0.2-0.7c0,0,0-0.1,0-0.1v-9.9h4c0.4,1.9,2.1,3.3,4.1,3.3
			h17.9c2.3,0,4.2-1.9,4.2-4.2v-0.5c0-2.3-1.9-4.2-4.2-4.2h-17.9c-1.9,0-3.5,1.3-4,3h-4.1v-9.2C-84.6-71.6-84.5-72-84.3-72.2z
			 M-78.2-73.9c0-0.9,0.8-1.7,1.7-1.7h17.9c0.9,0,1.7,0.7,1.7,1.7v0.5c0,0.9-0.8,1.7-1.7,1.7h-17.9c-0.9,0-1.7-0.8-1.7-1.7V-73.9z
			 M-93.2-57.2c0,1.7-1.4,3-3,3h-19c-1.7,0-3-1.4-3-3V-64c0-1.7,1.4-3,3-3h19c1.7,0,3,1.4,3,3V-57.2z M-78.2-47.9
			c0-0.9,0.8-1.7,1.7-1.7h17.9c0.9,0,1.7,0.7,1.7,1.7v0.5c0,0.9-0.8,1.7-1.7,1.7h-17.9c-0.9,0-1.7-0.8-1.7-1.7V-47.9z M-78.2-60.9
			c0-0.9,0.8-1.7,1.7-1.7h17.9c0.9,0,1.7,0.8,1.7,1.7v0.5c0,0.9-0.8,1.7-1.7,1.7h-17.9c-0.9,0-1.7-0.8-1.7-1.7V-60.9z"/>
	</g>
</g>
</svg>
