<?xml version="1.0" encoding="utf-8"?>
<!-- Generator: Adobe Illustrator 19.0.0, SVG Export Plug-In . SVG Version: 6.00 Build 0)  -->
<svg version="1.1" xmlns="http://www.w3.org/2000/svg" xmlns:xlink="http://www.w3.org/1999/xlink" x="0px" y="0px"
	 viewBox="0 0 70.9 56.7" style="enable-background:new 0 0 70.9 56.7;fill: #FFF;" xml:space="preserve">
<g id="Layer_1">
</g>
<g id="Layer_2">
</g>
<g id="Layer_3">
	<g>
		<path d="M146.1,27.8h7.9c0.7,0,1.3-0.6,1.3-1.3s-0.6-1.3-1.3-1.3h-7.9c-0.7,0-1.3,0.6-1.3,1.3S145.4,27.8,146.1,27.8z"/>
		<path d="M142.6,25.3h-0.4c-0.7,0-1.3,0.6-1.3,1.3s0.6,1.3,1.3,1.3h0.4c0.7,0,1.3-0.6,1.3-1.3S143.3,25.3,142.6,25.3z"/>
		<path d="M152.9,21.8c0-0.7-0.6-1.3-1.3-1.3h-16.4c-0.7,0-1.3,0.6-1.3,1.3s0.6,1.3,1.3,1.3h16.4C152.3,23,152.9,22.5,152.9,21.8z"
			/>
		<path d="M185.2,19.2c3.6,0,6.6-2.9,6.6-6.6s-2.9-6.6-6.6-6.6s-6.6,2.9-6.6,6.6S181.6,19.2,185.2,19.2z M185.2,8.6
			c2.2,0,4.1,1.8,4.1,4.1s-1.8,4.1-4.1,4.1s-4.1-1.8-4.1-4.1S183,8.6,185.2,8.6z"/>
		<path d="M196.5,24c-0.5-0.5-1.3-0.5-1.8,0c-0.1,0.1-6.2,6.1-8.1,7.9c-0.8,0.8-1.4,0.6-1.7,0.3l-4.5-4.5c-0.5-0.5-1.3-0.5-1.8,0
			l-5.4,5.3c-0.3,0.3-0.4,0.8-0.3,1.2c0.1,0.4,0.4,0.8,0.8,0.9l6.1,2c0,0,0.1,0,0.1,0c0.2,0.1,0.8,0.3,0.9,0.6
			c0.1,0.3-0.2,1.1-1.4,2.3l-9.5,9.5c-0.5,0.5-0.5,1.3,0,1.8c0.2,0.2,0.6,0.4,0.9,0.4s0.6-0.1,0.9-0.4l9.5-9.5
			c1.7-1.7,2.4-3.3,2-4.7c-0.5-1.7-2.3-2.3-2.7-2.4l-4.1-1.3l3.1-3l3.7,3.7c0.1,0.1,1,1,2.5,1c0.7,0,1.7-0.2,2.8-1.3
			c1.9-1.9,8-7.8,8.1-7.9C197,25.3,197,24.5,196.5,24z"/>
		<path d="M190.4,20l-4.2,4.2l-3.5-3.4c-0.5-0.5-1.3-0.5-1.8,0s-0.5,1.3,0,1.8l4.3,4.3c0.2,0.2,0.6,0.4,0.9,0.4
			c0.3,0,0.7-0.1,0.9-0.4l5.1-5.1c0.5-0.5,0.5-1.3,0-1.8C191.7,19.5,190.9,19.5,190.4,20z"/>
		<path d="M156.8,20.6c0.3,0,0.6-0.1,0.9-0.4l8.1-8c0,0,0.1-0.1,0.1-0.1c0.3-0.3,1.2-1.3,2.2-1.3c0.5,0,0.9,0.2,1.4,0.6
			c2.6,2.6,6.1,5.9,6.1,5.9c0.5,0.5,1.3,0.5,1.8-0.1c0.5-0.5,0.5-1.3,0-1.8c0,0-3.5-3.3-6-5.9c-1.2-1.2-2.4-1.4-3.3-1.4
			c-2.1,0.1-3.6,1.8-3.9,2.2l-8.1,7.9c-0.5,0.5-0.5,1.3,0,1.8C156.1,20.5,156.4,20.6,156.8,20.6z"/>
		<path d="M173.2,21.5c0-0.3-0.1-0.7-0.4-0.9l-4.3-4.3c-0.2-0.2-0.6-0.4-0.9-0.4c0,0,0,0,0,0c-0.3,0-0.6,0.1-0.9,0.4l-6.4,6.4
			c-0.5,0.5-0.5,1.3,0,1.8s1.3,0.5,1.8,0l5.5-5.5l2.5,2.6l-24.9,24.3c-0.5,0.5-0.5,1.3,0,1.8c0.2,0.3,0.6,0.4,0.9,0.4
			c0.3,0,0.6-0.1,0.9-0.4l25.8-25.2C173.1,22.1,173.2,21.8,173.2,21.5z"/>
	</g>
	<g>
		<path d="M165.9,108.4c-8.5,0-15.5,6.9-15.5,15.5s6.9,15.5,15.5,15.5s15.5-6.9,15.5-15.5S174.4,108.4,165.9,108.4z M165.9,136.9
			c-7.2,0-13-5.8-13-13c0-7.2,5.8-13,13-13s13,5.8,13,13C178.9,131,173,136.9,165.9,136.9z"/>
		<path d="M170.9,150.7c-0.7-0.1-1.3,0.4-1.4,1.1c0,0.1-0.5,3.5-3.6,3.6c-3,0-3.5-3.2-3.6-3.6c-0.1-0.7-0.7-1.2-1.4-1.1
			c-0.7,0.1-1.2,0.7-1.1,1.4c0.3,2,1.9,5.6,6,5.7c0,0,0,0,0.1,0c0,0,0,0,0.1,0c0,0,0,0,0.1,0c4.1-0.1,5.7-3.8,6-5.7
			C172,151.5,171.5,150.8,170.9,150.7z"/>
		<path d="M173,141.5h-14.3c-0.7,0-1.3,0.6-1.3,1.3s0.6,1.3,1.3,1.3H173c0.7,0,1.3-0.6,1.3-1.3S173.7,141.5,173,141.5z"/>
		<path d="M171.6,145.9h-11.5c-0.7,0-1.3,0.6-1.3,1.3s0.6,1.3,1.3,1.3h11.5c0.7,0,1.3-0.6,1.3-1.3S172.3,145.9,171.6,145.9z"/>
		<path d="M174.9,122l-1.1-0.4c-0.1-0.4-0.2-0.7-0.4-1.1l0.6-1.2c0.2-0.4,0.1-0.9-0.2-1.2l-1.8-1.8c-0.3-0.3-0.8-0.4-1.1-0.2
			l-1.1,0.5c-0.3-0.2-0.7-0.4-1-0.5l-0.4-1.2c-0.1-0.4-0.5-0.7-1-0.7h-2.5c-0.4,0-0.8,0.3-0.9,0.7l-0.4,1.1
			c-0.4,0.1-0.7,0.2-1.1,0.4l-1.2-0.7c-0.4-0.2-0.9-0.1-1.2,0.2l-1.8,1.8c-0.3,0.3-0.4,0.8-0.2,1.1l0.5,1.1
			c-0.2,0.3-0.4,0.7-0.5,1.1l-1.3,0.4c-0.4,0.1-0.7,0.5-0.7,1v2.5c0,0.4,0.3,0.8,0.7,0.9l1.1,0.4c0.1,0.3,0.2,0.7,0.4,1l-0.7,1.2
			c-0.2,0.4-0.1,0.9,0.2,1.2l1.8,1.8c0.3,0.3,0.8,0.4,1.1,0.2l1.1-0.5c0.3,0.2,0.7,0.3,1,0.5l0.4,1.3c0.1,0.4,0.5,0.7,1,0.7h2.5
			c0.4,0,0.8-0.3,0.9-0.7l0.4-1.1c0.4-0.1,0.8-0.3,1.2-0.4l1.1,0.6c0.4,0.2,0.9,0.1,1.2-0.2l1.8-1.8c0.3-0.3,0.4-0.7,0.2-1.1
			l-0.5-1.1c0.2-0.3,0.4-0.6,0.5-1l1.3-0.4c0.4-0.1,0.7-0.5,0.7-1v-2.5C175.5,122.5,175.3,122.1,174.9,122z M173.5,124.7l-0.9,0.3
			c-0.4,0.1-0.7,0.4-0.8,0.7c-0.1,0.5-0.4,0.9-0.7,1.5c-0.2,0.3-0.2,0.6-0.1,1l0.4,0.9l-0.7,0.7l-0.9-0.5c-0.3-0.2-0.7-0.2-1,0
			c-0.5,0.3-1.1,0.5-1.7,0.6c-0.3,0.1-0.6,0.3-0.7,0.6l-0.3,1H165l-0.3-0.9c-0.1-0.4-0.3-0.7-0.7-0.8c-0.5-0.2-1.1-0.4-1.5-0.7
			c-0.3-0.2-0.7-0.2-1-0.1l-0.9,0.5l-0.7-0.7l0.5-0.9c0.2-0.3,0.3-0.7,0.1-1.1c-0.3-0.5-0.5-1-0.6-1.6c-0.1-0.3-0.3-0.6-0.6-0.7
			l-1-0.3v-1l1.1-0.3c0.3-0.1,0.6-0.3,0.7-0.7c0.2-0.6,0.4-1.1,0.7-1.6c0.2-0.3,0.2-0.8,0-1.1l-0.4-0.9l0.7-0.7l1,0.6
			c0.3,0.2,0.6,0.2,0.9,0c0.5-0.3,1-0.5,1.6-0.6c0.3-0.1,0.6-0.3,0.7-0.7l0.3-0.9h1l0.3,1c0,0.1,0,0.1,0.1,0.2
			c0.2,0.3,0.4,0.4,0.7,0.5c0.5,0.1,0.9,0.4,1.4,0.7c0.3,0.2,0.7,0.2,1,0.1l0.9-0.4l0.7,0.7l-0.5,0.9c-0.2,0.3-0.2,0.7-0.1,1
			c0.3,0.5,0.5,1,0.6,1.6c0.1,0.3,0.3,0.6,0.6,0.7l1,0.3V124.7z"/>
		<path d="M165.9,119.4c-2.5,0-4.5,2-4.5,4.5s2,4.5,4.5,4.5c2.5,0,4.5-2,4.5-4.5S168.3,119.4,165.9,119.4z M165.9,126.4
			c-1.4,0-2.5-1.1-2.5-2.5s1.1-2.5,2.5-2.5c1.4,0,2.5,1.1,2.5,2.5S167.2,126.4,165.9,126.4z"/>
		<path d="M165.9,106.2c0.7,0,1.3-0.6,1.3-1.3v-7c0-0.7-0.6-1.3-1.3-1.3s-1.3,0.6-1.3,1.3v7C164.6,105.6,165.2,106.2,165.9,106.2z"
			/>
		<path d="M191.4,121.8h-7c-0.7,0-1.3,0.6-1.3,1.3s0.6,1.3,1.3,1.3h7c0.7,0,1.3-0.6,1.3-1.3S192.1,121.8,191.4,121.8z"/>
		<path d="M182.9,132.8c-0.5-0.5-1.3-0.5-1.8,0s-0.5,1.3,0,1.8l5,4.9c0.2,0.2,0.6,0.4,0.9,0.4s0.6-0.1,0.9-0.4
			c0.5-0.5,0.5-1.3,0-1.8L182.9,132.8z"/>
		<path d="M179.5,110.8c0.3,0,0.6-0.1,0.9-0.4l4.9-4.9c0.5-0.5,0.5-1.3,0-1.8s-1.3-0.5-1.8,0l-4.9,4.9c-0.5,0.5-0.5,1.3,0,1.8
			C178.8,110.7,179.1,110.8,179.5,110.8z"/>
		<path d="M147.8,123.2c0-0.7-0.6-1.3-1.3-1.3h-7c-0.7,0-1.3,0.6-1.3,1.3s0.6,1.3,1.3,1.3h7C147.2,124.4,147.8,123.9,147.8,123.2z"
			/>
		<path d="M148.4,112.6c0.2,0.2,0.6,0.4,0.9,0.4s0.6-0.1,0.9-0.4c0.5-0.5,0.5-1.3,0-1.8l-4.9-5c-0.5-0.5-1.3-0.5-1.8,0
			s-0.5,1.3,0,1.8L148.4,112.6z"/>
		<path d="M150.2,134.9l-5,5c-0.5,0.5-0.5,1.3,0,1.8c0.2,0.2,0.6,0.4,0.9,0.4s0.6-0.1,0.9-0.4l5-5c0.5-0.5,0.5-1.3,0-1.8
			S150.6,134.4,150.2,134.9z"/>
	</g>
	<g>
		<path d="M-233.3,24.4c5.1,0,9.3-4.1,9.3-9.3s-4.1-9.3-9.3-9.3s-9.3,4.1-9.3,9.3S-238.4,24.4-233.3,24.4z M-233.3,8.4
			c3.7,0,6.8,3,6.8,6.8s-3,6.8-6.8,6.8s-6.8-3-6.8-6.8S-237,8.4-233.3,8.4z"/>
		<path d="M-246.5,38.3c0.8,1.5,5.3,6.1,12.6,12.7l0.8,0.8l0.8-0.8c7.2-6.5,11.2-10.8,12-12.7l0,0c0.6-1.2,1-2.6,1-3.9
			c0-4.6-3.7-8.4-8.4-8.4c-2.2,0-4.2,0.9-5.8,2.4c-1.5-1.6-3.6-2.4-5.8-2.4c-4.6,0-8.4,3.7-8.4,8.4
			C-247.4,35.7-247.1,37.1-246.5,38.3L-246.5,38.3z M-239.1,28.5c1.9,0,3.7,0.9,4.8,2.6l1,1.5l1-1.5c1.1-1.7,2.8-2.6,4.7-2.6
			c3.2,0,5.9,2.6,5.9,5.9c0,1-0.2,1.9-0.7,2.7l-0.2,0.3l0,0.1c-0.3,0.5-1.9,3-10.5,10.9c-9.3-8.5-11-10.8-11.2-11.1l-0.1-0.1
			c-0.4-0.8-0.7-1.8-0.7-2.7C-244.9,31.1-242.3,28.5-239.1,28.5z"/>
		<path d="M-225.5,133.8c3.2-2.7,5.2-6.7,5.2-11.2c0-8-6.5-14.6-14.6-14.6c-8,0-14.6,6.5-14.6,14.6s6.5,14.6,14.6,14.6
			c2.5,0,4.9-0.6,7-1.8l8,10.4c0.3,0.4,0.7,0.6,1.1,0.6c0.3,0,0.6-0.1,0.9-0.3c0.6-0.5,0.7-1.4,0.3-2L-225.5,133.8z M-246.5,122.7
			c0-6.4,5.2-11.7,11.7-11.7c6.4,0,11.7,5.2,11.7,11.7c0,6.4-5.2,11.7-11.7,11.7C-241.3,134.4-246.5,129.1-246.5,122.7z"/>
		<path d="M-225.9,126.8c0.7-1.3,1.1-2.9,1.1-4.4c0-5.2-4.3-9.5-9.5-9.5c-0.6,0-1.2,0.1-1.8,0.2c-0.8,0.1-1.3,0.9-1.1,1.7
			c0.1,0.8,0.9,1.3,1.7,1.1c0.4-0.1,0.8-0.1,1.2-0.1c3.7,0,6.7,3,6.7,6.7c0,1.1-0.3,2.1-0.7,3.1c-0.4,0.7-0.1,1.6,0.6,1.9
			c0.2,0.1,0.4,0.2,0.7,0.2C-226.7,127.6-226.2,127.3-225.9,126.8z"/>
		<path d="M50.3,101.8h-4.8c-0.7,0-1.3,0.6-1.3,1.3v1.8l-2.2-2H27.4l-0.4,0.5c-1.7,2.2-4.9,5.4-6.6,5.4h-1.3v6.2h9.3v27.4h0.1
			l6.2,10.3l6.2-10.3H41V115h1.7l1.5-1.2v1.8c0,0.7,0.6,1.3,1.3,1.3h4.8c0.7,0,1.3-0.6,1.3-1.3V103C51.5,102.3,51,101.8,50.3,101.8z
			 M36.2,145.3h-3l-1.8-2.9H38L36.2,145.3z M30.9,139.9V115h2.5v24.9H30.9z M38.5,139.9H36V115h2.5V139.9z M44.2,110.6l-2.4,1.9H41
			H28.4h-6.8v-1.4c2.9-0.8,5.8-4.2,7-5.7H41l3.1,2.8V110.6z M49,114.4h-2.3v-2.5v-4.7v-2.9H49V114.4z"/>
		<path d="M-115.3,48.3h19.6c2,0,3.7-1.6,3.7-3.7v-3.2h3.9c0.7,0,1.3-0.6,1.3-1.3s-0.6-1.3-1.3-1.3h-3.9V32h3.9
			c0.7,0,1.3-0.6,1.3-1.3s-0.6-1.3-1.3-1.3h-3.9v-6.9h3.9c0.7,0,1.3-0.6,1.3-1.3s-0.6-1.3-1.3-1.3h-3.9v-7.1c0-2.1-1.7-3.7-3.7-3.7
			H-111l-8,8.4v26.9C-119,46.6-117.4,48.3-115.3,48.3z M-116.5,18.7l5-5.2v4h-3.4V20h5.9v-8.1h13.2c0.7,0,1.2,0.6,1.2,1.2v7.1h-7.6
			c-0.7,0-1.3,0.6-1.3,1.3s0.6,1.3,1.3,1.3h7.6v6.9h-7.6c-0.7,0-1.3,0.6-1.3,1.3s0.6,1.3,1.3,1.3h7.6v6.9h-7.6
			c-0.7,0-1.3,0.6-1.3,1.3s0.6,1.3,1.3,1.3h7.6v3.2c0,0.6-0.5,1.2-1.2,1.2h-19.6c-0.6,0-1.2-0.5-1.2-1.2V18.7z"/>
		<path d="M-110.5,23.9c0.2,0.2,0.6,0.4,0.9,0.4s0.6-0.1,0.9-0.4l4.6-4.6c0.5-0.5,0.5-1.3,0-1.8s-1.3-0.5-1.8,0l-3.7,3.7l-0.8-0.8
			c-0.5-0.5-1.3-0.5-1.8,0s-0.5,1.3,0,1.8L-110.5,23.9z"/>
		<path d="M-104.9,26.6c-0.5-0.5-1.3-0.5-1.8,0l-1.4,1.4l-1.4-1.4c-0.5-0.5-1.3-0.5-1.8,0s-0.5,1.3,0,1.8l1.4,1.4l-1.4,1.4
			c-0.5,0.5-0.5,1.3,0,1.8c0.2,0.2,0.6,0.4,0.9,0.4s0.6-0.1,0.9-0.4l1.4-1.4l1.4,1.4c0.2,0.2,0.6,0.4,0.9,0.4s0.6-0.1,0.9-0.4
			c0.5-0.5,0.5-1.3,0-1.8l-1.4-1.4l1.4-1.4C-104.5,27.9-104.5,27.1-104.9,26.6z"/>
		<path d="M-104.9,36.6c-0.5-0.5-1.3-0.5-1.8,0l-1.4,1.4l-1.4-1.4c-0.5-0.5-1.3-0.5-1.8,0s-0.5,1.3,0,1.8l1.4,1.4l-1.4,1.4
			c-0.5,0.5-0.5,1.3,0,1.8c0.2,0.2,0.6,0.4,0.9,0.4s0.6-0.1,0.9-0.4l1.4-1.4l1.4,1.4c0.2,0.2,0.6,0.4,0.9,0.4s0.6-0.1,0.9-0.4
			c0.5-0.5,0.5-1.3,0-1.8l-1.4-1.4l1.4-1.4C-104.5,37.8-104.5,37-104.9,36.6z"/>
		<path d="M-85.8,137.3l-2.1-20.3c3-0.8,5.3-3.6,5.3-6.9c0-3.9-3.2-7.1-7.1-7.1s-7.1,3.2-7.1,7.1c0,0.8,0.1,1.6,0.4,2.3l-17.7,10.5
			c-1.3-1.5-3.2-2.4-5.4-2.4c-3.9,0-7.1,3.2-7.1,7.1c0,3.9,3.2,7.1,7.1,7.1c2.2,0,4.2-1,5.6-2.7l20.9,10.1c-0.2,0.7-0.3,1.4-0.3,2.2
			c0,3.9,3.2,7.1,7.1,7.1s7.1-3.2,7.1-7.1C-79.3,140.6-82.2,137.6-85.8,137.3z M-89.8,105.5c2.6,0,4.6,2.1,4.6,4.6s-2.1,4.6-4.6,4.6
			s-4.6-2.1-4.6-4.6S-92.4,105.5-89.8,105.5z M-119.6,132.2c-2.6,0-4.6-2.1-4.6-4.6c0-2.6,2.1-4.6,4.6-4.6s4.6,2.1,4.6,4.6
			C-115,130.1-117,132.2-119.6,132.2z M-112.8,129.9c0.2-0.7,0.4-1.5,0.4-2.3c0-0.9-0.2-1.8-0.5-2.6l17.6-10.4c1.2,1.5,3,2.5,5,2.6
			l2.1,20.3c-1.5,0.4-2.8,1.3-3.7,2.5L-112.8,129.9z M-86.4,149c-2.6,0-4.6-2.1-4.6-4.6s2.1-4.6,4.6-4.6s4.6,2.1,4.6,4.6
			S-83.8,149-86.4,149z"/>
		<path d="M38.6,17.2c0.2-0.2,0.6-0.2,0.7-0.2c0.1,0,0.1,0,0.2,0h2.8c0.4,1.9,2.1,3.3,4.1,3.3h17.9c2.3,0,4.2-1.9,4.2-4.2v-0.5
			c0-2.3-1.9-4.2-4.2-4.2H46.4c-1.9,0-3.5,1.3-4,3.1h-2.8c-0.4,0-1.6-0.1-2.6,0.8c-0.5,0.5-1.1,1.3-1.1,2.9v9.2h-3.7v-2
			c0-3.1-2.5-5.5-5.5-5.5h-19c-3.1,0-5.5,2.5-5.5,5.5v6.8c0,3.1,2.5,5.5,5.5,5.5h19c3.1,0,5.5-2.5,5.5-5.5v-2.3h3.7v9.9
			c0,0.3,0,1.5,0.9,2.5c0.5,0.5,1.3,1.1,2.8,1.1h3c0.6,1.6,2.1,2.8,3.9,2.8h17.9c2.3,0,4.2-1.9,4.2-4.2v-0.5c0-2.3-1.9-4.2-4.2-4.2
			H46.4c-2.1,0-3.8,1.5-4.1,3.5h-2.8c-0.3,0-0.7,0-1-0.3c-0.2-0.2-0.2-0.7-0.2-0.7c0,0,0-0.1,0-0.1v-9.9h4c0.4,1.9,2.1,3.3,4.1,3.3
			h17.9c2.3,0,4.2-1.9,4.2-4.2v-0.5c0-2.3-1.9-4.2-4.2-4.2H46.4c-1.9,0-3.5,1.3-4,3h-4.1v-9.2C38.4,17.8,38.4,17.4,38.6,17.2z
			 M44.8,15.6c0-0.9,0.8-1.7,1.7-1.7h17.9c0.9,0,1.7,0.7,1.7,1.7v0.5c0,0.9-0.8,1.7-1.7,1.7H46.4c-0.9,0-1.7-0.8-1.7-1.7V15.6z
			 M29.7,32.2c0,1.7-1.4,3-3,3h-19c-1.7,0-3-1.4-3-3v-6.8c0-1.7,1.4-3,3-3h19c1.7,0,3,1.4,3,3V32.2z M44.8,41.5
			c0-0.9,0.8-1.7,1.7-1.7h17.9c0.9,0,1.7,0.7,1.7,1.7V42c0,0.9-0.8,1.7-1.7,1.7H46.4c-0.9,0-1.7-0.8-1.7-1.7V41.5z M44.8,28.5
			c0-0.9,0.8-1.7,1.7-1.7h17.9c0.9,0,1.7,0.8,1.7,1.7V29c0,0.9-0.8,1.7-1.7,1.7H46.4c-0.9,0-1.7-0.8-1.7-1.7V28.5z"/>
	</g>
</g>
</svg>
