<?xml version="1.0" encoding="utf-8"?>
<svg version="1.1" id="Layer_1" xmlns="http://www.w3.org/2000/svg" xmlns:xlink="http://www.w3.org/1999/xlink" x="0px" y="0px"
	 viewBox="0 0 161.9 58.6" style="enable-background:new 0 0 161.9 58.6; fill: #FFF;" xml:space="preserve">
<g>
	<path d="M9,44.7c0.2,3.1,2.5,5.9,7.1,5.9c3.5,0,5.1-1.8,5.1-3.8c0-1.7-1.2-3.1-4.2-3.8l-5.1-1.2C4.4,40.1,1,35.7,1,30.2
		c0-6.9,6.1-12.6,14.5-12.6c11,0,14.7,7,15.2,11.2l-8.7,2c-0.3-2.3-2-5.2-6.4-5.2c-2.7,0-4.9,1.6-4.9,3.8c0,1.9,1.4,3.1,3.5,3.5
		l5.5,1.2c7.6,1.6,11.5,6.2,11.5,11.9c0,6.3-4.9,12.7-15,12.7C4.5,58.6,0.5,51.1,0,46.7L9,44.7z"/>
	<path d="M45.8,57.4H35.4V0.5h10.4V22c2.5-3,6.8-4.2,10.4-4.2c9.8,0,14.4,6.8,14.4,15.3v24.3H60.2V34.9c0-4.3-2.1-7.7-7.1-7.7
		c-4.4,0-7,3.3-7.2,7.5V57.4z"/>
	<path d="M74.9,57.4V18.8h10.4v38.6H74.9z"/>
	<path d="M159.8,46.5c4.7,5.1,1,11.4-4.3,11.4c-3.5,0-6.4-2.9-6.4-6.4C149.1,46.6,154.7,42.9,159.8,46.5z"/>
	<path d="M106.6,14.5v4.2h8.7v9h-8.7v29.7H96.1V27.7h-6.4v-9h6.4v-4.4c0-8.7,5.5-14.4,14.1-14.4c2.2,0,4.3,0.4,5.2,0.8v8.8
		c-0.5-0.2-1.6-0.4-3.3-0.4C109.7,9.2,106.6,10.2,106.6,14.5z"/>
	<path d="M126.6,18.8V7.2H137v11.5h7.8V28H137v16.2c0,3.4,1.6,4.5,4.6,4.5c1.3,0,2.7-0.2,3.2-0.3V57c-0.9,0.4-2.8,0.9-5.9,0.9
		c-7.5,0-12.3-4.5-12.3-11.9V27.7h-7v-9H126.6z"/>
</g>
</svg>
